<svg version="1" xmlns="http://www.w3.org/2000/svg" width="346.667" height="346.667" viewBox="0 0 260.000000 260.000000"><path d="M99.8 2.8l-2.3 2.8V97h-5c-2.7 0-23.2.1-45.5.1-22.3.1-41.2.5-42.2 1C0 100.7 0 100.4 0 129.9c0 26.5.1 27.8 2 29.9 1.2 1.2 2.8 2.3 3.8 2.3.9.1 21.3.3 45.2.4 23.9.2 44.2.3 45 .4 1.3.1 1.5 5.9 1.5 45.8v45.7l2.3 2.8 2.4 2.8h55.5l2.4-2.6 2.4-2.5.1-45.7c.1-25.1.2-45.9.3-46.2.1-.3 20.5-.5 45.3-.4 28.1 0 46.1-.3 47.3-.9 4.3-2.2 4.4-3 4.5-31.8v-27.6l-2.6-2.4-2.6-2.4h-45.9c-40.1 0-45.9-.2-46-1.5-.1-.8-.2-21.6-.3-46.2l-.1-44.6-2.4-2.6-2.4-2.6h-55.5l-2.4 2.8z"/></svg>