<?xml version="1.0" encoding="utf-8"?>
<!-- Generator: Adobe Illustrator 16.0.0, SVG Export Plug-In . SVG Version: 6.00 Build 0)  -->
<!DOCTYPE svg PUBLIC "-//W3C//DTD SVG 1.1//EN" "http://www.w3.org/Graphics/SVG/1.1/DTD/svg11.dtd">
<svg version="1.1" id="Layer_1" xmlns="http://www.w3.org/2000/svg" xmlns:xlink="http://www.w3.org/1999/xlink" x="0px" y="0px"
	 width="257px" height="239px" viewBox="306.14 277.986 257 239" enable-background="new 306.14 277.986 257 239"
	 xml:space="preserve">
<circle fill="#D2110C" cx="372.889" cy="453.226" r="49.169"/>
<path fill="#D2110C" d="M422.041,346.566c0,27.027-21.909,48.937-48.937,48.937c-27.026,0-48.937-21.909-48.937-48.937
	c0-27.026,21.91-48.937,48.937-48.937h48.937V346.566L422.041,346.566z"/>
<circle fill="#D2110C" cx="461.748" cy="364.865" r="30.559"/>
<ellipse transform="matrix(0.7067 -0.7075 0.7075 0.7067 -73.2802 441.6024)" fill="#D2110C" cx="495.995" cy="309.188" rx="19.545" ry="14.631"/>
<ellipse transform="matrix(0.7067 -0.7075 0.7075 0.7067 -88.1664 417.0936)" fill="#D2110C" cx="459.004" cy="314.891" rx="19.545" ry="14.631"/>
<ellipse transform="matrix(0.7067 -0.7075 0.7075 0.7067 -82.6364 464.0716)" fill="#D2110C" cx="518.418" cy="331.707" rx="19.545" ry="14.631"/>
<ellipse transform="matrix(0.7067 -0.7075 0.7075 0.7067 -110.3381 470.5968)" fill="#D2110C" cx="512.438" cy="368.382" rx="19.545" ry="14.631"/>
<path fill="#FFFFFF" d="M378.324,463.61c-3.619,6.526-10.578,10.945-18.569,10.945c-11.719,0-21.218-9.499-21.218-21.218
	c0-11.718,9.499-21.217,21.218-21.217c7.996,0,14.958,4.423,18.575,10.956l-6.82-0.001c-2.86-3.274-7.066-5.342-11.755-5.342
	c-8.619,0-15.604,6.986-15.604,15.604s6.984,15.604,15.604,15.604c4.684,0,8.887-2.063,11.746-5.331H378.324z"/>
<path id="R" d="M433.182,411.357h19.842c6.869,0,13.629,3.107,13.629,10.957c0,4.198-2.017,8.178-6.105,9.758v0.109
	c4.144,0.981,5.342,5.614,5.669,9.321c0.109,1.636,0.272,7.359,1.636,8.776h-10.03c-0.872-1.308-1.036-5.124-1.146-6.215
	c-0.271-3.924-0.927-7.958-5.669-7.958h-7.686v14.173h-10.14V411.357L433.182,411.357z M443.322,428.257h8.503
	c3.053,0,4.688-1.636,4.688-4.579c0-2.889-2.288-4.197-5.124-4.197h-8.066V428.257z"/>
<path id="E" d="M471.574,411.357h31.018v8.123h-20.878v6.814h19.079v7.85h-19.079v7.413h21.423v8.723h-31.563V411.357z"/>
<path id="D" d="M507.498,411.357h16.734c11.938,0,19.08,7.251,19.08,19.299c0,12.756-7.25,19.624-19.08,19.624h-16.734V411.357z
	 M517.637,441.558h4.798c7.687-0.163,10.738-3.161,10.738-10.957c0-7.085-3.815-10.521-10.738-10.521h-4.798V441.558z"/>
<path id="L" d="M433.182,454.269h10.14v30.199h18.152v8.723h-28.292V454.269z"/>
<path id="I" d="M464.39,454.269h10.14v38.922h-10.14V454.269z"/>
<path id="S" d="M487.337,480.106c0.218,4.579,3.053,6.052,7.359,6.052c3.053,0,6.215-1.091,6.215-3.979
	c0-3.435-5.562-4.09-11.176-5.67c-5.562-1.581-11.394-4.089-11.394-11.23c0-8.503,8.559-11.829,15.863-11.829
	c7.741,0,15.536,3.762,15.591,12.538h-10.139c0.163-3.543-3.162-4.688-6.27-4.688c-2.18,0-4.905,0.764-4.905,3.325
	c0,2.998,5.614,3.543,11.283,5.124c5.615,1.581,11.284,4.198,11.284,11.229c0,9.867-8.395,13.029-16.953,13.029
	c-8.94,0-16.845-3.925-16.9-13.901L487.337,480.106L487.337,480.106z"/>
<path id="T" d="M542.842,462.99H531.23v30.2h-10.138v-30.2h-11.611v-8.722h33.361V462.99L542.842,462.99z"/>
<text transform="matrix(1 0 0 1 542.2512 419.8281)" font-family="'ArialMT'" font-size="13.8989">©</text>
<path id="I_1_" fill="#FFFFFF" d="M350.842,458.757v-9.954h1.981v9.954H350.842"/>
<path id="U" fill="#FFFFFF" d="M354.69,448.803h2.091v5.392c0,0.854,0.026,1.41,0.078,1.663c0.09,0.408,0.301,0.735,0.637,0.984
	c0.339,0.245,0.8,0.366,1.384,0.366c0.594,0,1.041-0.116,1.343-0.346c0.301-0.236,0.482-0.523,0.544-0.862
	c0.062-0.34,0.092-0.903,0.092-1.69v-5.507h2.091v5.229c0,1.194-0.057,2.038-0.169,2.531c-0.113,0.493-0.323,0.91-0.629,1.249
	c-0.301,0.341-0.706,0.612-1.216,0.815c-0.508,0.199-1.172,0.299-1.992,0.299c-0.988,0-1.739-0.108-2.253-0.326
	c-0.509-0.222-0.912-0.507-1.209-0.855c-0.296-0.353-0.492-0.723-0.586-1.106c-0.137-0.57-0.205-1.413-0.205-2.525V448.803"/>
<path id="C" fill="#FFFFFF" d="M364.205,453.841c0-1.014,0.149-1.865,0.449-2.553c0.224-0.507,0.526-0.962,0.909-1.364
	c0.389-0.402,0.813-0.702,1.271-0.896c0.611-0.263,1.316-0.393,2.114-0.394c1.445,0.001,2.602,0.455,3.466,1.364
	c0.564,0.589,0.945,1.327,1.144,2.213l-2.076,0.022c-0.124-0.417-0.309-0.764-0.553-1.039c-0.49-0.562-1.144-0.843-1.96-0.843
	s-1.476,0.285-1.974,0.855c-0.5,0.565-0.749,1.421-0.749,2.567 M366.247,453.774c0,1.126,0.255,1.982,0.769,2.565
	c0.513,0.579,1.164,0.869,1.954,0.869c0.789,0,1.436-0.287,1.94-0.863c0.28-0.319,0.484-0.727,0.609-1.221l2.08,0.045
	c-0.184,0.969-0.573,1.768-1.171,2.399c-0.86,0.906-2.012,1.357-3.452,1.357c-1.459,0-2.619-0.45-3.48-1.352
	c-0.86-0.905-1.291-2.149-1.291-3.733"/>
<path id="N" fill="#FFFFFF" d="M374.816,458.757v-9.954h1.776l4.541,6.894v-6.894h1.847v9.954h-1.73l-4.671-6.981l0.194,6.981
	H374.816"/>
</svg>
