<?xml version="1.0" encoding="utf-8"?>
<!-- Generator: Adobe Illustrator 22.1.0, SVG Export Plug-In . SVG Version: 6.00 Build 0)  -->
<svg version="1.1" id="Layer_1" xmlns="http://www.w3.org/2000/svg" xmlns:xlink="http://www.w3.org/1999/xlink" x="0px" y="0px"
	 viewBox="0 0 183 63.5" style="enable-background:new 0 0 183 63.5;" xml:space="preserve">
<style type="text/css">
	.st0{fill:#FFFFFF;}
</style>
<title>Page 1</title>
<desc>Created with Sketch.</desc>
<g id="Homepage" transform="translate(-20.000000, -18.000000)">
	<g id="Page-1" transform="translate(20.000000, 18.000000)">
		<path id="Fill-1" class="st0" d="M19.6,30.5c1.6,0,3.1-0.3,4.5-0.9c1.4-0.6,2.5-1.4,3.5-2.5c1-1,1.7-2.3,2.3-3.6
			c0.5-1.4,0.8-2.9,0.8-4.4V19c0-1.6-0.3-3.1-0.8-4.5c-0.5-1.4-1.3-2.6-2.3-3.7S25.3,9,23.9,8.4c-1.4-0.6-2.8-0.9-4.5-0.9
			c-1.6,0-3.1,0.3-4.5,0.9c-1.3,0.6-2.5,1.4-3.5,2.5c-1,1-1.7,2.3-2.3,3.6c-0.5,1.4-0.8,2.9-0.8,4.4V19c0,1.6,0.3,3.1,0.8,4.5
			c0.5,1.4,1.3,2.6,2.3,3.7c1,1,2.2,1.9,3.5,2.5C16.4,30.2,17.9,30.5,19.6,30.5 M19.4,38c-2.8,0-5.4-0.5-7.8-1.5
			c-2.4-1-4.4-2.3-6.2-4c-1.7-1.7-3.1-3.7-4-6c-1-2.3-1.4-4.8-1.4-7.4V19c0-2.6,0.5-5.1,1.5-7.4c1-2.3,2.3-4.3,4.1-6
			s3.8-3.1,6.2-4.1c2.4-1,5-1.5,7.8-1.5s5.4,0.5,7.8,1.5c2.4,1,4.4,2.3,6.2,4c1.7,1.7,3.1,3.7,4,6c1,2.3,1.4,4.7,1.4,7.4V19
			c0,2.6-0.5,5.1-1.5,7.4c-1,2.3-2.3,4.3-4.1,6c-1.7,1.7-3.8,3.1-6.2,4.1C24.9,37.5,22.3,38,19.4,38"/>
		<path id="Fill-3" class="st0" d="M57.6,38c-2.1,0-4-0.4-5.8-1.2C50,36,48.4,35,47.1,33.6c-1.3-1.3-2.3-2.9-3-4.7
			c-0.7-1.8-1.1-3.7-1.1-5.8V23c0-2,0.4-4,1.1-5.8s1.7-3.4,3-4.8C48.4,11,50,10,51.7,9.2C53.5,8.4,55.5,8,57.7,8
			c2.6,0,4.8,0.4,6.6,1.3c1.7,0.9,3.3,2,4.6,3.5L64,18.2c-0.9-1-1.8-1.7-2.8-2.3c-1-0.6-2.1-0.9-3.6-0.9c-1,0-1.9,0.2-2.7,0.6
			c-0.8,0.4-1.5,1-2.1,1.7c-0.6,0.7-1.1,1.6-1.4,2.5c-0.3,1-0.5,2-0.5,3V23c0,1.1,0.2,2.2,0.5,3.1c0.3,1,0.8,1.8,1.4,2.5
			c0.6,0.7,1.4,1.3,2.2,1.7c0.9,0.4,1.8,0.6,2.9,0.6c1.3,0,2.5-0.3,3.5-0.8c1-0.6,2-1.3,2.9-2.2l4.6,4.8c-1.4,1.5-2.9,2.8-4.6,3.8
			C62.6,37.5,60.4,38,57.6,38"/>
		<path id="Fill-5" class="st0" d="M93.1,20.7c-0.2-1.8-0.9-3.3-1.9-4.4c-1-1.1-2.4-1.7-4.1-1.7S84,15.1,83,16.2
			c-1,1.1-1.7,2.6-2,4.5H93.1z M87.9,38c-2.1,0-4.1-0.4-5.9-1.1c-1.8-0.7-3.4-1.7-4.7-3.1c-1.3-1.3-2.4-2.9-3.1-4.7
			c-0.7-1.8-1.1-3.8-1.1-6V23c0-2,0.3-4,1-5.8s1.7-3.4,2.9-4.8c1.2-1.4,2.7-2.4,4.4-3.2C83.1,8.4,85,8,87.1,8c2.4,0,4.4,0.4,6.2,1.3
			c1.7,0.9,3.2,2,4.3,3.5c1.2,1.5,2,3.1,2.6,5c0.5,1.9,0.8,3.8,0.8,5.9c0,0.3,0,0.7,0,1c0,0.4,0,0.7-0.1,1.1H81
			c0.4,1.9,1.2,3.3,2.4,4.2c1.2,1,2.7,1.4,4.6,1.4c1.3,0,2.6-0.2,3.6-0.7c1.1-0.5,2.2-1.2,3.3-2.3l4.6,4.1c-1.3,1.7-3,3-4.9,4
			C92.7,37.5,90.5,38,87.9,38z"/>
		<path id="Fill-7" class="st0" d="M117.1,32.5c1.9,0,3.4-0.5,4.6-1.4c1.1-0.9,1.7-2.1,1.7-3.6v-1.4c-0.7-0.3-1.5-0.6-2.3-0.8
			c-0.9-0.2-1.8-0.3-2.8-0.3c-1.7,0-3.1,0.3-4.1,1c-1,0.7-1.5,1.6-1.5,2.9v0.1c0,1.1,0.4,1.9,1.2,2.5
			C114.8,32.2,115.8,32.5,117.1,32.5 M114.7,38c-1.3,0-2.6-0.2-3.8-0.6c-1.2-0.4-2.2-0.9-3.1-1.7c-0.9-0.7-1.6-1.6-2.1-2.7
			c-0.5-1.1-0.8-2.3-0.8-3.7v-0.1c0-1.5,0.3-2.9,0.8-4c0.6-1.1,1.3-2,2.3-2.8c1-0.7,2.2-1.3,3.6-1.7c1.4-0.4,2.9-0.6,4.6-0.6
			c1.4,0,2.7,0.1,3.8,0.3c1.1,0.2,2.1,0.5,3.1,0.8V21c0-1.7-0.5-3-1.5-3.8c-1-0.9-2.5-1.3-4.5-1.3c-1.5,0-2.9,0.1-4.1,0.4
			c-1.2,0.3-2.4,0.6-3.7,1.1l-2-6.1c1.5-0.7,3.2-1.2,4.9-1.6C114,9.2,116,9,118.4,9c2.2,0,4.1,0.3,5.7,0.8c1.6,0.5,2.9,1.3,3.9,2.3
			c1.1,1.1,1.8,2.3,2.3,3.9c0.5,1.5,0.7,3.2,0.7,5.1v16.3h-7.8v-3c-1,1.1-2.2,2-3.5,2.6C118.3,37.7,116.7,38,114.7,38"/>
		<path id="Fill-9" class="st0" d="M138,8.5h8v4.1c0.5-0.6,1-1.2,1.5-1.7c0.5-0.6,1.2-1,1.8-1.5c0.7-0.4,1.4-0.8,2.2-1
			c0.8-0.2,1.7-0.4,2.8-0.4c3.1,0,5.4,0.9,7.1,2.8c1.7,1.9,2.5,4.5,2.5,7.8V37h-8V21.2c0-1.9-0.4-3.3-1.3-4.3c-0.8-1-2-1.5-3.6-1.5
			c-1.6,0-2.8,0.5-3.7,1.5c-0.9,1-1.4,2.4-1.4,4.3V37h-8V8.5z"/>
		<polygon id="Fill-11" class="st0" points="172.7,14.2 167,14.2 167,9.8 172.7,9.8 172.7,4 177.3,4 177.7,9.8 183,9.8 183,14.2 
			177.3,14.2 177.3,20 172.7,20 		"/>
		<g>
			<path class="st0" d="M72.9,44.6h2.5v7.6h9.4v-7.6h2.5V63h-2.5v-8.6h-9.4V63h-2.5V44.6z"/>
			<path class="st0" d="M98.2,54.9c0.5-0.1,0.9-0.3,1-0.6c0.1-0.2,0.2-0.5,0.2-0.9c0-0.8-0.3-1.3-0.8-1.7c-0.5-0.3-1.3-0.5-2.3-0.5
				c-1.2,0-2,0.3-2.5,1c-0.3,0.4-0.5,0.9-0.5,1.6h-2.1c0-1.7,0.6-2.8,1.6-3.5c1-0.6,2.2-1,3.6-1c1.6,0,2.9,0.3,3.8,0.9
				c1,0.6,1.5,1.5,1.5,2.8v7.7c0,0.2,0,0.4,0.1,0.6c0.1,0.1,0.3,0.2,0.6,0.2c0.1,0,0.2,0,0.3,0c0.1,0,0.3,0,0.4-0.1v1.7
				c-0.3,0.1-0.6,0.2-0.8,0.2c-0.2,0-0.4,0-0.8,0c-0.8,0-1.3-0.3-1.7-0.8c-0.2-0.3-0.3-0.7-0.4-1.2c-0.5,0.6-1.1,1.1-2,1.6
				c-0.9,0.4-1.8,0.7-2.8,0.7c-1.2,0-2.3-0.4-3-1.1c-0.8-0.8-1.2-1.7-1.2-2.8c0-1.2,0.4-2.2,1.2-2.9c0.8-0.7,1.8-1.1,3.1-1.3
				L98.2,54.9z M93.5,61c0.5,0.4,1,0.6,1.7,0.6c0.8,0,1.6-0.2,2.3-0.5c1.3-0.6,1.9-1.6,1.9-3v-1.8c-0.3,0.2-0.6,0.3-1.1,0.4
				c-0.4,0.1-0.9,0.2-1.3,0.2L95.6,57c-0.8,0.1-1.4,0.3-1.8,0.5c-0.7,0.4-1,1-1,1.9C92.7,60.1,93,60.6,93.5,61z"/>
			<path class="st0" d="M105.1,44.6h2.2v6.7c0.5-0.6,1.1-1.1,1.8-1.5c0.7-0.3,1.4-0.5,2.2-0.5c1.7,0,3,0.6,4.1,1.7
				c1,1.1,1.6,2.8,1.6,5.1c0,2.1-0.5,3.9-1.5,5.3s-2.5,2.1-4.3,2.1c-1,0-1.9-0.2-2.6-0.7c-0.4-0.3-0.9-0.8-1.3-1.4V63h-2.1V44.6z
				 M113.7,60c0.6-1,0.9-2.2,0.9-3.8c0-1.4-0.3-2.6-0.9-3.5c-0.6-0.9-1.5-1.4-2.7-1.4c-1,0-1.9,0.4-2.7,1.1c-0.8,0.8-1.2,2-1.2,3.8
				c0,1.3,0.2,2.3,0.5,3.1c0.6,1.5,1.7,2.2,3.3,2.2C112.2,61.4,113.1,60.9,113.7,60z"/>
			<path class="st0" d="M119.5,44.6h2.3v2.6h-2.3V44.6z M119.5,49.7h2.3V63h-2.3V49.7z"/>
			<path class="st0" d="M125.6,45.9h2.3v3.7h2.1v1.8h-2.1v8.7c0,0.5,0.2,0.8,0.5,0.9c0.2,0.1,0.5,0.1,0.9,0.1c0.1,0,0.2,0,0.4,0
				c0.1,0,0.3,0,0.4,0V63c-0.3,0.1-0.5,0.1-0.8,0.2s-0.6,0.1-0.9,0.1c-1,0-1.8-0.3-2.1-0.8c-0.4-0.5-0.6-1.2-0.6-2.1v-8.9h-1.8v-1.8
				h1.8V45.9z"/>
			<path class="st0" d="M139.5,54.9c0.5-0.1,0.9-0.3,1-0.6c0.1-0.2,0.1-0.5,0.1-0.9c0-0.8-0.3-1.3-0.8-1.7c-0.5-0.3-1.3-0.5-2.3-0.5
				c-1.2,0-2,0.3-2.5,1c-0.3,0.4-0.5,0.9-0.5,1.6h-2.1c0-1.7,0.6-2.8,1.6-3.5c1-0.6,2.2-1,3.6-1c1.6,0,2.9,0.3,3.8,0.9
				c1,0.6,1.5,1.5,1.5,2.8v7.7c0,0.2,0,0.4,0.1,0.6c0.1,0.1,0.3,0.2,0.6,0.2c0.1,0,0.2,0,0.3,0c0.1,0,0.3,0,0.4-0.1v1.7
				c-0.4,0.1-0.6,0.2-0.8,0.2s-0.4,0-0.8,0c-0.8,0-1.3-0.3-1.7-0.8c-0.2-0.3-0.3-0.7-0.4-1.2c-0.5,0.6-1.1,1.1-2,1.6
				c-0.9,0.4-1.8,0.7-2.8,0.7c-1.2,0-2.3-0.4-3-1.1c-0.8-0.8-1.2-1.7-1.2-2.8c0-1.2,0.4-2.2,1.2-2.9c0.8-0.7,1.8-1.1,3.1-1.3
				L139.5,54.9z M134.8,61c0.5,0.4,1,0.6,1.7,0.6c0.8,0,1.6-0.2,2.3-0.5c1.2-0.6,1.9-1.6,1.9-3v-1.8c-0.3,0.2-0.6,0.3-1.1,0.4
				s-0.9,0.2-1.3,0.2l-1.4,0.2c-0.8,0.1-1.4,0.3-1.8,0.5c-0.7,0.4-1,1-1,1.9C134,60.1,134.3,60.6,134.8,61z"/>
			<path class="st0" d="M147,45.9h2.3v3.7h2.1v1.8h-2.1v8.7c0,0.5,0.2,0.8,0.5,0.9c0.2,0.1,0.5,0.1,0.9,0.1c0.1,0,0.2,0,0.3,0
				c0.1,0,0.3,0,0.4,0V63c-0.3,0.1-0.5,0.1-0.8,0.2s-0.6,0.1-0.9,0.1c-1.1,0-1.8-0.3-2.1-0.8c-0.4-0.5-0.6-1.2-0.6-2.1v-8.9h-1.8
				v-1.8h1.8V45.9z"/>
			<path class="st0" d="M155,58.8c0.1,0.8,0.3,1.3,0.6,1.7c0.6,0.7,1.6,1.1,3,1.1c0.9,0,1.6-0.2,2.2-0.5c0.6-0.4,1-0.9,1-1.7
				c0-0.6-0.3-1-0.8-1.3c-0.3-0.2-1-0.4-2-0.6l-1.8-0.5c-1.2-0.3-2-0.6-2.6-1c-1-0.6-1.5-1.5-1.5-2.5c0-1.3,0.5-2.3,1.4-3.1
				c0.9-0.8,2.2-1.2,3.7-1.2c2,0,3.5,0.6,4.4,1.8c0.6,0.8,0.8,1.6,0.8,2.4h-2.1c0-0.5-0.2-1-0.6-1.4c-0.5-0.6-1.4-0.9-2.8-0.9
				c-0.9,0-1.5,0.2-2,0.5c-0.4,0.3-0.7,0.8-0.7,1.3c0,0.6,0.3,1,0.9,1.4c0.3,0.2,0.8,0.4,1.5,0.5l1.5,0.4c1.6,0.4,2.8,0.8,3.3,1.1
				c0.9,0.6,1.3,1.5,1.3,2.7c0,1.2-0.5,2.2-1.4,3.1c-0.9,0.9-2.3,1.3-4.2,1.3c-2,0-3.4-0.5-4.3-1.4c-0.8-0.9-1.3-2-1.3-3.4H155z"/>
		</g>
	</g>
</g>
</svg>
