<?xml version="1.0" encoding="UTF-8" standalone="no"?>
<svg
   xmlns:dc="http://purl.org/dc/elements/1.1/"
   xmlns:cc="http://creativecommons.org/ns#"
   xmlns:rdf="http://www.w3.org/1999/02/22-rdf-syntax-ns#"
   xmlns:svg="http://www.w3.org/2000/svg"
   xmlns="http://www.w3.org/2000/svg"
   viewBox="0 0 397.94666 119.94667"
   height="119.94667"
   width="397.94666"
   xml:space="preserve"
   id="svg2"
   version="1.1"><metadata
     id="metadata8"><rdf:RDF><cc:Work
         rdf:about=""><dc:format>image/svg+xml</dc:format><dc:type
           rdf:resource="http://purl.org/dc/dcmitype/StillImage" /></cc:Work></rdf:RDF></metadata><defs
     id="defs6" /><g
     transform="matrix(1.3333333,0,0,-1.3333333,0,119.94667)"
     id="g10"><g
       transform="scale(0.1)"
       id="g12"><path
         id="path14"
         style="fill:#ffffff;fill-opacity:1;fill-rule:nonzero;stroke:none"
         d="m 239.844,340.098 c 99.219,0 163.125,74.687 163.125,171.015 0,96.328 -63.906,171.016 -163.125,171.016 -99.297,0 -163.2034,-74.688 -163.2034,-171.016 0,-96.328 63.9064,-171.015 163.2034,-171.015 z M 0,741.113 h 76.6406 v -66.875 h 1.9532 c 42.3442,49.141 98.3592,78.672 165.1562,78.672 144.531,0 241.797,-102.187 241.797,-241.797 0,-137.578 -101.25,-241.797 -230,-241.797 -82.578,0 -148.438,41.329 -176.9532,93.438 H 76.6406 L 76.6406,0 H 0 v 741.113" /><path
         id="path16"
         style="fill:#ffffff;fill-opacity:1;fill-rule:nonzero;stroke:none"
         d="m 537.309,632.051 c 0,42.187 -3.985,78.594 -3.985,109.062 h 72.735 c 0,-24.609 1.953,-50.078 1.953,-75.703 h 1.953 c 20.625,45.235 77.648,87.5 153.359,87.5 9.844,0 20.625,-1.015 31.406,-4.922 l -4.921,-77.656 c -12.735,3.906 -27.5,5.938 -41.25,5.938 -93.36,0 -134.61,-65.938 -134.61,-171.094 V 281.113 h -76.64 v 350.938" /><path
         id="path18"
         style="fill:#ffffff;fill-opacity:1;fill-rule:nonzero;stroke:none"
         d="M 1623.65,676.27 H 1488.02 V 446.191 c 0,-58.906 0.94,-106.093 68.75,-106.093 22.66,0 47.19,4.922 67.81,15.703 l 2.97,-69.766 c -26.48,-11.797 -60.93,-16.719 -89.45,-16.719 -109.05,0 -126.79,58.985 -126.79,154.375 V 676.27 h -100.23 v 64.843 h 100.23 v 130.703 h 76.71 V 741.113 h 135.63 V 676.27" /><path
         id="path20"
         style="fill:#ffffff;fill-opacity:1;fill-rule:nonzero;stroke:none"
         d="m 2011.46,552.363 c -2.97,77.657 -54.06,129.766 -138.59,129.766 -84.54,0 -140.55,-52.109 -150.39,-129.766 z m 65.86,-187.656 c -54.06,-69.844 -118.91,-95.391 -204.45,-95.391 -144.46,0 -232.97,108.125 -232.97,241.797 0,142.5 100.31,241.797 235.93,241.797 129.77,0 218.13,-88.515 218.13,-240.781 V 487.52 h -371.48 c 5.93,-79.61 66.87,-147.422 150.39,-147.422 65.86,0 110.07,23.593 146.48,69.765 l 57.97,-45.156" /><path
         id="path22"
         style="fill:#ffffff;fill-opacity:1;fill-rule:nonzero;stroke:none"
         d="m 2559.12,390.176 c 0,-42.188 3.98,-78.594 3.98,-109.063 h -72.73 c 0,24.61 -1.96,50.157 -1.96,75.703 h -2.03 c -20.62,-45.234 -77.58,-87.5 -153.28,-87.5 -120.86,0 -174.92,76.641 -174.92,187.735 v 284.062 h 76.64 V 464.941 c 0,-76.718 33.44,-124.843 105.16,-124.843 99.29,0 142.5,71.797 142.5,176.953 v 224.062 h 76.64 V 390.176" /><path
         id="path24"
         style="fill:#ffffff;fill-opacity:1;fill-rule:nonzero;stroke:none"
         d="m 2682.89,402.051 c 30.46,-37.344 63.9,-61.953 117.96,-61.953 48.13,0 101.18,20.625 101.18,70.781 0,49.141 -49.07,61.953 -98.28,72.734 -87.5,19.61 -162.11,38.36 -162.11,133.672 0,89.453 86.48,135.625 171.95,135.625 64.84,0 124.84,-24.609 156.25,-83.594 l -63.83,-42.187 c -19.69,32.422 -52.11,55 -97.34,55 -42.27,0 -90.39,-20.625 -90.39,-63.906 0,-38.282 55,-55 115.93,-66.797 81.64,-15.703 150.39,-45.235 150.39,-137.578 0,-104.219 -92.42,-144.532 -183.75,-144.532 -77.65,0 -133.75,20.625 -178.9,85.547 l 60.94,47.188" /><path
         id="path26"
         style="fill:#ffffff;fill-opacity:1;fill-rule:nonzero;stroke:none"
         d="m 1207.84,440.629 c -38.93,-81.871 -136.85,-116.668 -218.715,-77.75 -81.863,38.941 -116.66,136.832 -77.742,218.723 38.933,81.859 136.847,116.668 218.687,77.726 81.9,-38.918 116.69,-136.84 77.77,-218.699 z m 23.9,1.855 c 16.78,41.907 17.91,87.852 2.67,130.758 -13.03,36.625 -36.74,67.422 -67.92,89.317 l 11.16,96.855 -67.93,-69.664 c -16.22,4.586 -32.95,6.91 -50.01,6.91 -67.272,0 -129.647,-37.082 -162.155,-95.363 L 861,605.496 887.477,579.688 c -34.407,-86.309 0.761,-185.243 81.941,-230.442 l -4.227,-36.746 25.672,26.332 c 21.917,-8.789 44.957,-13.277 68.627,-13.277 67.28,0 129.67,37.078 162.17,95.347 l 36.54,-4.214 -26.46,25.796" /><path
         id="path28"
         style="fill:#ffffff;fill-opacity:1;fill-rule:nonzero;stroke:none"
         d="m 1221.66,420.902 c -32.5,-58.269 -94.89,-95.347 -162.17,-95.347 -23.67,0 -46.71,4.488 -68.627,13.277 l -25.672,-26.332 4.227,36.746 C 888.238,394.445 853.07,493.379 887.477,579.688 L 861,605.496 l 36.555,-4.199 c 32.508,58.281 94.883,95.363 162.155,95.363 17.06,0 33.79,-2.324 50.01,-6.91 l 67.93,69.664 -11.16,-96.855 c 31.18,-21.895 54.89,-52.692 67.92,-89.317 15.24,-42.906 14.11,-88.851 -2.67,-130.758 l 26.46,-25.796 z m 64.6,6.149 c 35.21,94.597 7.26,199.609 -65.9,264.668 l 23.92,207.89 -146.07,-149.808 C 1001.56,765.488 902.457,720.859 851.313,633.832 l -65.801,7.574 47.422,-46.242 C 792.172,485.609 836.098,362.07 936.879,302.82 l -7.578,-65.789 46.23,47.41 c 109.559,-40.769 233.119,3.164 292.359,103.946 l 65.8,-7.578 -47.43,46.242" /></g></g></svg>