<?xml version="1.0" encoding="UTF-8"?>
<svg width="173px" height="57px" viewBox="0 0 173 57" version="1.1" xmlns="http://www.w3.org/2000/svg" xmlns:xlink="http://www.w3.org/1999/xlink">
    <!-- Generator: Sketch 49.3 (51167) - http://www.bohemiancoding.com/sketch -->
    <title>Group 3</title>
    <desc>Created with Sketch.</desc>
    <defs></defs>
    <g id="Page-1" stroke="none" stroke-width="1" fill="none" fill-rule="evenodd">
        <g id="warm-water-corals" transform="translate(-635.000000, -138.000000)" fill="#FFFFFF">
            <g id="Group-3" transform="translate(635.000000, 138.000000)">
                <g id="Page-1">
                    <path d="M18.5497312,28.9392265 C20.0742903,28.9392265 21.483871,28.657989 22.7768817,28.0939227 C24.0698925,27.5306519 25.1717366,26.7513812 26.0840054,25.7569061 C26.9954785,24.7624309 27.7080269,23.6110276 28.2224462,22.301105 C28.7360699,20.9919779 28.9932796,19.5911602 28.9932796,18.0994475 L28.9932796,18 C28.9932796,16.5082873 28.7360699,15.0997127 28.2224462,13.7734807 C27.7080269,12.4480442 26.9791667,11.2872928 26.0342742,10.2928177 C25.0893817,9.29834254 23.9704301,8.51131492 22.6774194,7.93093923 C21.3844086,7.35135912 19.974828,7.06077348 18.4502688,7.06077348 C16.8914946,7.06077348 15.4741559,7.34280663 14.1982527,7.90607735 C12.9215538,8.47014365 11.8274677,9.24861878 10.9159946,10.2430939 C10.0037258,11.2375691 9.29117742,12.389768 8.77755376,13.698895 C8.26313441,15.0088177 8.00672043,16.4088398 8.00672043,17.9005525 L8.00672043,18 C8.00672043,19.4917127 8.26313441,20.9010829 8.77755376,22.2265193 C9.29117742,23.5527514 10.0208333,24.7127072 10.9657258,25.7071823 C11.9106183,26.7016575 13.0210161,27.4894807 14.2977151,28.0690608 C15.5736183,28.6494365 16.990957,28.9392265 18.5497312,28.9392265 M18.4502688,36 C15.7647849,36 13.2945376,35.5276243 11.0403226,34.5828729 C8.78531183,33.6381215 6.83803763,32.3624088 5.1969086,30.7541436 C3.55577957,29.146674 2.27908065,27.2571713 1.36760753,25.0856354 C0.45533871,22.914895 0,20.5856354 0,18.0994475 L0,18 C0,15.5138122 0.463892473,13.1853481 1.39247312,11.0138122 C2.32025806,8.84307182 3.60551075,6.93646409 5.24663978,5.29558011 C6.88776882,3.65469613 8.84359677,2.36187845 11.1149194,1.41712707 C13.3854462,0.472375691 15.8642473,0 18.5497312,0 C21.2352151,0 23.7046667,0.472375691 25.9596774,1.41712707 C28.2138925,2.36187845 30.1619624,3.63838674 31.8030914,5.24585635 C33.4442204,6.85412155 34.7201237,8.74362431 35.6323925,10.9143646 C36.5438656,13.0859006 37,15.4143646 37,17.9005525 L37,18 C37,20.4861878 36.5353118,22.8154475 35.6075269,24.9861878 C34.6789462,27.1577238 33.3944892,29.0635359 31.7533602,30.7044199 C30.1122312,32.3453039 28.1556075,33.6381215 25.8850806,34.5828729 C23.6137581,35.5276243 21.1357527,36 18.4502688,36" id="Fill-1"></path>
                    <path d="M54.4457831,36 C52.5180723,36 50.7266506,35.6314839 49.0722892,34.8960573 C47.4171566,34.1606308 45.9954699,33.1648746 44.8072289,31.9103943 C43.6182169,30.655914 42.686747,29.1842581 42.0120482,27.4946237 C41.3373494,25.8057921 41,24.0071685 41,22.1003584 L41,22 C41,20.09319 41.3373494,18.2867384 42.0120482,16.5806452 C42.686747,14.874552 43.6182169,13.3864373 44.8072289,12.1146953 C45.9954699,10.8437563 47.4171566,9.84017204 49.0722892,9.10394265 C50.7266506,8.36851613 52.5496867,8 54.5421687,8 C56.9834217,8 59.0075181,8.40143369 60.6144578,9.20430108 C62.2206265,10.0071685 63.6340241,11.1111111 64.8554217,12.516129 L60.373494,17.5340502 C59.5376386,16.6308244 58.6784578,15.9118566 57.7951807,15.3763441 C56.9111325,14.8416344 55.810988,14.5734767 54.4939759,14.5734767 C53.5617349,14.5734767 52.7183614,14.7663656 51.9638554,15.1505376 C51.2085783,15.5355125 50.5496867,16.0623943 49.9879518,16.7311828 C49.4254458,17.4007742 48.9917108,18.178552 48.686747,19.0645161 C48.381012,19.9512832 48.2289157,20.8960573 48.2289157,21.8996416 L48.2289157,22 C48.2289157,23.0373047 48.381012,24.0071685 48.686747,24.9103943 C48.9917108,25.8136201 49.4337349,26.6000287 50.0120482,27.2688172 C50.5903614,27.9384086 51.2808675,28.4652903 52.0843373,28.8494624 C52.8870361,29.2344373 53.7868916,29.4265233 54.7831325,29.4265233 C56.003759,29.4265233 57.0722892,29.1677993 57.9879518,28.6487455 C58.9036145,28.1304946 59.810988,27.4366165 60.7108434,26.5663082 L65,31.0824373 C63.746988,32.5211756 62.317012,33.7003871 60.7108434,34.6200717 C59.1039036,35.5397563 57.0158072,36 54.4457831,36" id="Fill-3"></path>
                    <path d="M87.6844106,19.8422939 C87.4534753,18.1362007 86.8603194,16.7562724 85.904943,15.702509 C84.9487757,14.6487455 83.6806084,14.1218638 82.0988593,14.1218638 C80.5171103,14.1218638 79.2396502,14.6409176 78.2680608,15.6774194 C77.2956806,16.714724 76.661597,18.1032832 76.365019,19.8422939 L87.6844106,19.8422939 Z M82.8403042,36 C80.8631179,36 79.0257186,35.6652043 77.3288973,34.9964158 C75.6312852,34.3276272 74.1653992,33.3742222 72.9296578,32.1362007 C71.6939163,30.8989821 70.730038,29.4351541 70.0380228,27.7455197 C69.3460076,26.0566882 69,24.1749677 69,22.1003584 L69,22 C69,20.09319 69.3212928,18.2867384 69.9638783,16.5806452 C70.6064639,14.874552 71.5039087,13.3864373 72.6577947,12.1146953 C73.8108897,10.8437563 75.1864183,9.84017204 76.7851711,9.10394265 C78.3831331,8.36851613 80.1540989,8 82.0988593,8 C84.3061901,8 86.2177338,8.40143369 87.8326996,9.20430108 C89.4468745,10.0071685 90.7899772,11.0860215 91.8612167,12.4408602 C92.9316654,13.7956989 93.7225399,15.3512545 94.2338403,17.1075269 C94.7443498,18.8637993 95,20.6953405 95,22.6021505 C95,22.9032258 94.9914981,23.2215627 94.9752852,23.5555556 C94.9582814,23.8903513 94.9335665,24.2416057 94.9011407,24.609319 L76.4638783,24.609319 C76.8260989,26.3491326 77.5760456,27.6624229 78.7129278,28.5483871 C79.8498099,29.4351541 81.2585551,29.8781362 82.9391635,29.8781362 C84.1911179,29.8781362 85.3117871,29.6609606 86.3003802,29.2258065 C87.2889734,28.7914552 88.3099924,28.0889462 89.365019,27.1182796 L93.6653992,30.9820789 C92.412654,32.5548961 90.8973384,33.7842867 89.1178707,34.6702509 C87.338403,35.5562151 85.2453536,36 82.8403042,36 Z" id="Fill-5"></path>
                    <path d="M110.196755,30.673913 C111.94929,30.673913 113.352682,30.2348406 114.407708,29.3550725 C115.461955,28.4761159 115.989858,27.326087 115.989858,25.9057971 L115.989858,24.5362319 C115.340252,24.2318841 114.618402,23.9869855 113.823529,23.8007246 C113.027878,23.6152754 112.175951,23.5217391 111.267748,23.5217391 C109.677225,23.5217391 108.427473,23.8435362 107.51927,24.4855072 C106.610288,25.1282899 106.156187,26.057971 106.156187,27.2753623 L106.156187,27.3768116 C106.156187,28.4253913 106.528892,29.2369855 107.275862,29.8115942 C108.022053,30.3870145 108.995684,30.673913 110.196755,30.673913 M107.957404,36 C106.723619,36 105.563635,35.8224638 104.476673,35.4673913 C103.388933,35.1123188 102.439643,34.5797101 101.628803,33.8695652 C100.817185,33.1594203 100.175951,32.2891884 99.7058824,31.2572464 C99.2350345,30.2261159 99,29.034087 99,27.6811594 L99,27.5797101 C99,26.092058 99.2593753,24.8073043 99.7789047,23.7246377 C100.297655,22.6427826 101.020284,21.7463768 101.945233,21.0362319 C102.870183,20.326087 103.973112,19.7934783 105.255578,19.4384058 C106.537266,19.0833333 107.957404,18.9057971 109.515213,18.9057971 C110.845582,18.9057971 112.005566,19.0072464 112.995943,19.2101449 C113.985542,19.4130435 114.950799,19.6841159 115.892495,20.0217391 L115.892495,19.5652174 C115.892495,17.942029 115.421647,16.708 114.48073,15.8623188 C113.539034,15.0174493 112.144016,14.5942029 110.294118,14.5942029 C108.865606,14.5942029 107.60826,14.7210145 106.521298,14.9746377 C105.433558,15.2282609 104.289542,15.592058 103.089249,16.0652174 L101.239351,10.1811594 C102.667083,9.53918841 104.160243,9.01449275 105.718053,8.60869565 C107.275862,8.20289855 109.157696,8 111.365112,8 C113.409736,8 115.153899,8.26234783 116.598377,8.78623188 C118.042077,9.31092754 119.234775,10.0630725 120.176471,11.0434783 C121.150101,12.057971 121.863578,13.3007246 122.318458,14.7717391 C122.77256,16.2427536 123,17.8913043 123,19.7173913 L123,35.4927536 L115.843813,35.4927536 L115.843813,32.5507246 C114.934832,33.5993043 113.84787,34.4362609 112.58215,35.0615942 C111.31643,35.6869275 109.774588,36 107.957404,36" id="Fill-7"></path>
                    <path d="M130,8.51282051 L137.429735,8.51282051 L137.429735,12.442359 C137.852839,11.8573333 138.317198,11.2972308 138.822811,10.7635897 C139.327642,10.2299487 139.88976,9.75723077 140.509165,9.34379487 C141.127788,8.93025641 141.812106,8.60338462 142.562118,8.36215385 C143.311348,8.12102564 144.158338,8 145.10387,8 C147.9389,8 150.130086,8.90625641 151.678208,10.7179487 C153.225548,12.5304615 154,15.025641 154,18.2051282 L154,36 L146.570265,36 L146.570265,20.7043077 C146.570265,18.8629744 146.179226,17.4727179 145.397149,16.5352821 C144.615071,15.5977436 143.506868,15.1282051 142.07332,15.1282051 C140.63899,15.1282051 139.507128,15.5977436 138.676171,16.5352821 C137.845214,17.4727179 137.429735,18.8629744 137.429735,20.7043077 L137.429735,36 L130,36 L130,8.51282051 Z" id="Fill-9"></path>
                    <polygon id="Fill-11" points="163.38694 13.5783133 158 13.5783133 158 9.39156627 163.38694 9.39156627 163.38694 4 167.613159 4 168.009987 9.39156627 173 9.39156627 173 13.5783133 167.613159 13.5783133 167.613159 19 163.38694 19"></polygon>
                </g>
                <text id="Habitats" font-family="NotoSans, Noto Sans" font-size="20" font-weight="normal" line-spacing="67">
                    <tspan x="79" y="25">Habitats</tspan>
                    <tspan x="157.740234" y="25" font-size="48"> </tspan>
                </text>
            </g>
        </g>
    </g>
</svg>