<?xml version="1.0" encoding="UTF-8" standalone="no"?>
<svg
   xmlns:dc="http://purl.org/dc/elements/1.1/"
   xmlns:cc="http://creativecommons.org/ns#"
   xmlns:rdf="http://www.w3.org/1999/02/22-rdf-syntax-ns#"
   xmlns:svg="http://www.w3.org/2000/svg"
   xmlns="http://www.w3.org/2000/svg"
   viewBox="0 0 275.81332 78.239998"
   height="78.239998"
   width="275.81332"
   xml:space="preserve"
   id="svg2"
   version="1.1"><metadata
     id="metadata8"><rdf:RDF><cc:Work
         rdf:about=""><dc:format>image/svg+xml</dc:format><dc:type
           rdf:resource="http://purl.org/dc/dcmitype/StillImage" /></cc:Work></rdf:RDF></metadata><defs
     id="defs6" /><g
     transform="matrix(1.3333333,0,0,-1.3333333,0,78.24)"
     id="g10"><g
       transform="scale(0.1)"
       id="g12"><path
         id="path14"
         style="fill:#ffffff;fill-opacity:1;fill-rule:nonzero;stroke:none"
         d="m 766.953,519.484 c -62.84,0 -118.195,-32.082 -150.652,-80.754 22.769,-24.687 37.23,-57.07 39.008,-92.832 3.82,58.43 52.293,104.641 111.644,104.641 61.867,0 112.055,-50.156 112.055,-112.043 0,-61.844 -50.188,-112.031 -112.055,-112.031 -59.351,0 -107.824,46.23 -111.644,104.64 -1.778,-35.781 -16.239,-68.175 -39.008,-92.785 32.457,-48.699 87.812,-80.781 150.652,-80.781 99.961,0 180.996,81.016 180.996,180.957 0,99.981 -81.035,180.988 -180.996,180.988" /><path
         id="path16"
         style="fill:#ffffff;fill-opacity:1;fill-rule:nonzero;stroke:none"
         d="m 294.156,338.496 c 0,-118.016 95.653,-213.691 213.715,-213.691 39.234,0 75.844,10.742 107.43,29.172 v 83.211 c -26.969,-28.567 -65.067,-46.473 -107.43,-46.473 -69.75,0 -128.058,48.32 -143.586,113.32 h 142.414 v 63.789 H 362.977 c 13.636,67.567 73.261,118.485 144.894,118.485 42.363,0 80.461,-17.891 107.43,-46.473 v 83.242 c -31.586,18.399 -68.196,29.141 -107.43,29.141 -118.062,0 -213.715,-95.676 -213.715,-213.723" /><g
         transform="scale(10)"
         id="g18"><text
           id="text22"
           style="font-variant:normal;font-weight:normal;font-size:49.60589981px;font-family:Arial;-inkscape-font-specification:ArialMT;writing-mode:lr-tb;fill:#ffffff;fill-opacity:1;fill-rule:nonzero;stroke:none"
           transform="matrix(1,0,0,-1,102.995,16.1074)"><tspan
             id="tspan20"
             y="0"
             x="0 68.041039">BN</tspan></text>
</g><path
         id="path24"
         style="fill:#ffffff;fill-opacity:1;fill-rule:nonzero;stroke:none"
         d="M 359.379,367.805 H 143.078 v -63.789 h 144.457 c -14.508,-44.961 -56.715,-77.532 -106.582,-77.532 -61.844,0 -112.0233,50.149 -112.0233,112.012 0,61.887 50.1793,112.043 112.0233,112.043 16.617,0 32.344,-3.723 46.582,-10.195 v 72.871 c -14.906,3.945 -30.453,6.269 -46.582,6.269 -99.9139,0 -180.94909375,-81.035 -180.94909375,-180.988 0,-99.941 81.03519375,-180.957 180.94909375,-180.957 99.942,0 180.977,81.016 180.977,180.957 0,10.02 -1,19.766 -2.551,29.309" /><path
         id="path26"
         style="fill:#ffffff;fill-opacity:1;fill-rule:nonzero;stroke:none"
         d="m 1628.15,197.285 c -5.89,0.086 -12.11,0.344 -17.88,-0.879 -7.56,-1.59 -14.92,-4.304 -22.51,-6.289 -8.3,-2.215 -16.79,-4.082 -25.33,-5.195 -10.02,-1.25 -20.09,-2.637 -30.39,-2.461 -9.72,0.168 -19.34,0.519 -28.84,2.668 23.25,1.609 46.17,5.254 68.21,12.84 0.57,1.894 -0.87,1.711 -2.02,1.926 -6.19,1.132 -12.46,2.332 -18.75,3.484 -14.64,2.648 -28.92,6.894 -42.61,12.637 -10.32,4.328 -20.57,7.754 -31.7,9.386 -18.01,2.594 -35.1,8.114 -50.89,17.215 -0.78,0.645 -2.16,0.196 -2.62,1.641 1.31,0.265 2.2,-0.391 3.06,-1.063 13.85,-4.093 27.84,-7.871 42.36,-8.507 0.32,1.886 -0.48,2.421 -1.62,3.097 -11.17,7.293 -21.12,16.094 -30.08,25.985 -5.56,6.171 -10.92,12.539 -14.79,20.031 -0.49,0.125 -0.95,0.644 -0.58,1.07 0.49,0.559 0.74,-0.32 1.14,-0.504 26.5,-29.668 59.11,-49.504 97.5,-60.254 -5.69,19.942 -16.61,36.817 -28.48,53.25 8.35,-5.418 14.33,-12.84 20.37,-20.273 9.19,-11.133 16.02,-23.817 22.81,-36.367 0.51,-0.868 0.72,-1.297 1.8,-1.493 10.18,-1.816 20.35,-3.527 30.74,-4.062 6.85,-0.371 13.6,-0.43 20.37,-0.566 8.07,-0.176 15.93,2.265 25.04,0.437 -10.4,24.934 -25.46,45.227 -43.2,63.859 1.4,0.731 1.92,0.497 2.5,0.079 8.94,-6.407 17.13,-13.829 24.62,-21.829 10.72,-11.425 20.1,-23.925 28.39,-37.265 0.87,-1.445 1.84,-2.18 3.69,-1.824 5.95,1.211 11.9,2.343 17.88,3.406 7.67,1.34 15.15,3.332 22.54,5.625 -0.77,14.699 -2.91,28.789 -8.61,42.156 -6.14,14.211 -14.54,26.625 -25.17,37.832 -10.63,11.164 -23.13,18.938 -37.1,24.856 -15.58,6.671 -32.14,8.242 -48.83,7.824 -12.17,-0.324 -24.17,-2.57 -35.85,-5.293 -10.38,-2.434 -20.82,-4.063 -31.24,-5.938 -6.33,-1.191 -12.81,-0.832 -19.26,-0.382 -7.86,0.558 -15.41,2.285 -22.52,5.636 -11.37,5.332 -20.37,13.524 -28.59,22.696 -11.17,12.421 -19.34,26.609 -22.39,42.988 -2.06,11.258 -3.09,22.851 -0.62,34.453 0.69,3.418 2.76,7.031 1.19,10.73 -1.92,0.5 -2.46,-0.918 -3.26,-1.882 -2.82,-3.614 -5.15,-7.578 -7.55,-11.496 -1.3,-2.196 -2.73,-4.286 -3.93,-6.532 -3.07,-5.547 -5.56,-11.289 -8.02,-17.043 -8.8,-21.375 -13.71,-44.793 -13.71,-69.382 0,-99.973 80.31,-181.016 179.36,-181.016 43.72,0 83.76,15.82 114.89,42.051 -1.8,-0.102 -3.64,-0.078 -5.31,-0.586 -4.71,-1.328 -9.35,-1.543 -14.21,-1.477" /><path
         id="path28"
         style="fill:#ffffff;fill-opacity:1;fill-rule:nonzero;stroke:none"
         d="m 1413.05,460.266 c 2.22,4.91 5.46,8.535 11.7,9.148 -4.42,-2.879 -8.53,-5.437 -11.7,-9.148 z m 6.64,9.746 0.13,-0.059 h -0.13 z m 83.96,41.16 c -1.2,-0.84 -2.24,-1.082 -3.64,-0.488 1.16,0.929 2.36,0.421 3.64,0.488 z m -61.22,-32.559 c 1.1,1.231 0.51,2.09 -1.17,2.18 -0.94,0.027 -1.74,-0.363 -2.54,-0.832 -0.89,-0.527 -1.75,-1.094 -2.82,-0.801 -0.18,0.723 0.07,1.36 0.43,1.563 3.17,1.867 5.35,4.941 8.59,6.679 6.94,3.711 13.67,7.598 20.79,10.703 7.92,3.379 16.14,5.891 23.75,9.817 0.6,0.312 1.61,1.062 2.05,-0.195 0.38,-0.989 -0.65,-1.25 -1.24,-1.594 -2.46,-1.199 -4.81,-2.735 -7.39,-3.445 -2.42,-0.696 -4.13,-2.813 -6.75,-2.891 -0.71,-0.02 -2.02,-1.164 -1.98,-1.262 0.83,-1.758 -0.73,-1.238 -1.33,-1.367 -1.73,-0.547 -3.55,-0.789 -5.13,-1.68 -5.44,-3.015 -10.15,-6.816 -14.46,-11.738 2.31,-0.605 -0.17,-2.383 1.18,-3.613 3.88,2.453 7.91,4.699 12.21,6.562 2.01,0.86 3.78,1.789 6,1.582 0.92,-0.105 1.93,-0.039 2.31,-0.039 -2.02,-1.16 -5.26,-1.531 -7.21,-4.851 4.44,-0.313 8.19,0.156 11.9,1.277 1.6,0.5 2.65,0.625 3.8,-1.004 -1.95,0.047 -0.96,-1.894 -2.13,-2.316 2.02,-1.961 4.44,-2.137 8.61,-1.043 2.34,0.566 3.14,2.019 3.36,4.363 -2.36,0.352 -4.86,-0.496 -6.86,0.879 2.4,-0.418 4.75,-0.051 6.75,0.898 3.51,1.692 6.58,4.219 10.4,5.352 3.64,1.113 6.44,3.898 9.74,5.715 2.77,1.484 2.7,2.558 0.59,4.922 -0.31,0.32 -1.03,0.527 -0.73,1.23 2.14,1.551 4.86,1.375 7.13,2.488 -0.42,0.528 -1.16,0.996 -1.07,1.25 0.86,2.95 -1.49,2.024 -2.78,2.598 -1.91,0.793 -4.13,-0.898 -5.8,0.996 0.78,0.469 1.77,0.449 2.16,1.231 0.78,1.621 1.75,1.476 3.35,1.105 1.65,-0.371 3.74,-1.328 5.08,-0.051 1.08,0.918 1.99,0.274 2.05,0.02 0.82,-1.453 2.01,-0.985 3.18,-0.918 1.6,0.078 3.2,0.234 4.77,0.176 3.29,-0.106 6.45,0.664 9.6,1.105 0.72,0.098 1.75,0.203 1.85,1.387 -1.92,1.414 -4.27,0.945 -6.4,1.492 0.95,0.098 1.95,0.039 2.93,0.129 0.89,0.047 1.97,-0.383 2.62,0.762 -2.29,0.964 -4.58,1.543 -6.94,1.796 -0.7,0.02 -1.39,0.118 -2.1,0.118 -5.13,0 -10.17,-0.344 -15.22,-0.782 -1.93,-0.156 -3.87,-0.382 -5.8,-0.566 -4.66,-0.559 -9.28,-1.23 -13.81,-2.129 -3.08,-0.625 -6.11,-1.437 -9.13,-2.238 -2.98,-0.75 -5.98,-1.395 -8.89,-2.293 -6.62,-2.149 -13.12,-4.61 -19.53,-7.481 -13.5,-6.027 -25.92,-13.886 -37.52,-23.046 -8.77,-6.954 -16.76,-14.739 -24.03,-23.223 -1.17,-1.367 -2.31,-2.785 -3.47,-4.192 v -2 c 0.91,-2.257 0.56,-4.425 -0.06,-6.574 l -0.04,-3.847 c 1.44,1.621 2.62,3.398 3.79,5.031 3.11,4.18 6.49,7.996 10.02,11.726 0.65,0.618 1.18,1.282 2.18,0.762 0.6,-3.25 2.18,-3.828 4.71,-1.738 0.33,0.305 0.78,0.422 1.15,0.644 3.12,1.7 4.62,4.786 6.78,7.59 1.15,-0.48 2.58,0.36 4.13,0.106 2.28,-0.34 4,0.715 5.62,2.246 3.44,3.32 5.62,7.715 8.77,11.269 z m 107.44,-75.312 c -1.97,1.496 -4.36,0.195 -6.92,1.496 1.4,-2.5 4.51,-2.922 6.92,-1.496 z m -43.59,16.972 c 0.71,-1.464 0.02,-2.781 0.02,-4.109 0.02,-1.035 0.16,-1.777 1.69,-1.32 1.36,0.508 2.44,2.324 2.09,4.25 -0.38,2.449 -2.07,1.484 -3.8,1.179 z m 54.55,89.875 c 2.67,-3.613 6.4,-1.093 9.65,-1.378 -3.01,1.66 -6.46,0.546 -9.65,1.378 z m -31.54,-9.257 c 0.36,-0.52 0.6,-1.106 1,-1.516 0.6,-0.789 1.4,-1.453 2.2,-0.02 1,1.7 2.39,2.813 4.48,3.079 0.49,0.046 0.85,0.293 1.05,0.82 -0.8,0.809 -1.82,0.742 -2.75,0.809 -1.76,0.136 -3.2,-0.86 -4.87,-0.868 -1.84,0 -2.11,-0.8 -1.11,-2.304 z M 1686.52,347.93 c -0.22,-3.77 -0.36,-7.391 1.44,-11.024 3.25,2.5 2.42,8.887 -1.44,11.024 z m -121.4,154.152 c -0.44,0.293 -0.91,0.469 -1.45,0.106 -2.19,-1.387 -3.08,-3.438 -2.01,-5.653 0.49,-1.027 0.95,-2.031 1.19,-3.117 0.16,-0.684 0.56,-1.094 1.17,-1.23 1.79,-0.477 3.61,-0.997 5.82,-0.282 -0.4,0.34 -0.45,0.496 -0.63,0.547 -4.58,1.746 -5.54,3.906 -3.82,8.309 0.22,0.558 0.4,1.027 -0.27,1.32 z m -83.13,-45.371 c 0,-2.082 -1.62,-3.066 -3.05,-4.609 1.43,-0.684 2.46,-0.567 3.59,-0.442 3.75,0.391 4.95,3.555 6.87,6.223 -0.54,0.515 -0.58,1.601 -1.71,1.746 -0.78,0.109 -5.72,-2.234 -5.7,-2.918 z m 217.22,-161.516 c 0.02,0.071 -0.2,0.188 -0.34,0.332 -0.49,-0.156 -0.53,-0.554 -0.7,-1.004 -0.96,-3.234 -1.72,-6.562 -2.88,-9.757 -4.17,-11.356 -9.41,-22.207 -15.45,-32.618 -0.82,-1.464 -1.27,-2.996 -0.96,-5.027 1.48,0.731 2.56,1.172 3.1,2.43 1.05,2.629 2.74,4.844 4.36,7.129 3.92,5.441 7.51,11.015 10.22,17.109 1.09,2.551 2,5.215 2.76,7.941 1.24,4.551 -1.18,9.004 -0.11,13.465 z m -96.73,120.567 c -2.06,2.031 -0.68,4.699 -0.33,6.953 -2.75,2.726 -6.68,4.258 -8.37,8.164 -0.22,0.519 -0.82,0.898 -1.2,1.32 -1.4,1.328 -1.06,2.899 0.6,3.614 2.02,0.75 3.78,-0.137 4.82,-2.043 0.63,-1.192 1,-2.293 0.96,-3.7 -0.09,-1.261 0.52,-2.5 1.9,-3.097 5.73,-2.567 6.64,-8.145 8.62,-13.575 -2.89,-0.027 -5.33,0.723 -7,2.364 z m -12.23,-67.403 c -1.03,2.559 -2.27,4.797 -4.69,6.496 -1.95,1.317 -2.51,4.063 -2.42,6.309 0.07,2.703 -0.96,4.481 -3.02,5.84 -1.38,0.848 -2.49,1.687 -2.11,3.582 0.16,0.859 -0.76,1.437 -1.27,2.07 -2.09,2.676 -4.34,5.235 -5.2,8.645 -0.04,0 -0.04,0 -0.04,0 l -0.07,0.097 0.07,-0.078 0.04,-0.019 c 4.62,0.019 6.07,-3.703 8.04,-6.778 0.23,-0.371 0.21,-1.027 0.45,-1.261 3.18,-2.469 5.11,-5.828 6.99,-9.258 2.47,-4.578 6.24,-8.242 9.15,-12.586 1.27,-1.934 1.83,-4.055 2.18,-6.27 0.14,-1.085 0.38,-1.894 1.36,-2.539 -2.62,-0.246 -8.44,3.368 -9.46,5.75 z m -21.73,43.653 c -1.38,0.461 -2.86,0.324 -4.33,0.984 -1.25,0.617 -2.96,0.402 -4.25,-0.769 -1.1,-1.055 -2.48,-1.192 -4.01,-0.645 -2.21,0.754 -4.56,0.93 -6.8,1.32 -2.47,0.477 -5.05,1.016 -7.35,2.559 -1.6,1.121 -3.83,1.336 -5.8,0.203 -1.76,-0.965 -2.76,-2.195 -2.2,-4.422 0.37,-1.379 -1.76,-2.59 -3.15,-1.984 -1.74,0.715 -3.45,1.555 -5.27,2.082 -1.58,0.476 -2.62,1.172 -3.53,2.695 -1.24,2.098 -3.91,2.617 -6.15,2.664 -2.76,0.098 -4.36,1.731 -6.14,3.321 -0.53,0.488 -0.33,1.269 0.45,1.691 1.31,0.711 1.4,2.051 1.17,3.152 -0.26,1.418 -0.26,2.668 0.87,3.742 -2.02,1.122 -3.82,1.922 -5.89,0.762 -0.75,-0.414 -1.67,-0.344 -2.44,-0.012 -0.93,0.333 -1.82,0.528 -2.66,0.352 -4.38,-0.945 -8.75,0.539 -13.07,-0.566 -2.51,-0.633 -4.95,-1.563 -7.46,-2.411 -1.05,-0.332 -2.02,-1.144 -3.07,0.165 0.42,0.5 0.98,0.703 1.67,0.753 3.07,0.254 5.86,1.375 7.4,4.161 2.99,5.32 8.04,8.359 12.77,11.66 2.16,1.511 5.19,0.984 7.86,1.109 0.87,-0.945 0.36,-2.574 1.78,-3.172 1.71,1.125 0.97,3.196 1.98,4.699 1.78,-0.656 2.79,-2.296 3.96,-3.722 1.5,-1.856 3.97,-1.953 5.59,-3.555 0.84,-0.859 1.95,-1.512 2.67,-2.39 0.82,-0.879 1.02,-1.86 0.55,-3.125 -0.42,-1.301 -1.42,-1.243 -2.24,-1.34 -1.49,-0.184 -2.96,-0.098 -4.4,-0.086 -0.64,0 -1.25,-0.098 -1.44,-0.793 -0.3,-0.821 0.44,-1.016 0.93,-1.328 1.7,-0.926 3.64,-1.348 5.2,-2.422 0.7,0.402 0.98,0.957 0.91,1.445 -0.16,1.367 -0.21,2.305 1.76,2.356 0.92,0.046 1.31,1.746 2.28,2.41 1.36,0.898 0.53,1.769 -0.05,2.812 -0.59,1.125 0.32,1.379 1.29,1.336 0.89,-0.027 1.27,-1.148 2.32,-0.894 0.73,0.808 0.22,1.355 -0.54,1.746 -2.27,1.281 -4.04,3.203 -6.62,4.179 -1.47,0.606 -2.36,2.11 -3.13,3.528 1.24,1.492 2.73,1.511 4.64,-0.539 1.13,-1.219 2.27,-2.332 3.71,-3.094 2.95,-1.613 4.15,-4.738 5.98,-7.238 1.55,-2.118 2.49,-4.657 3.75,-6.922 0.87,-1.563 1.85,-1.914 3.94,-1.485 -0.94,1.309 0.43,2.293 0.43,3.504 l -0.05,0.039 0.05,-0.031 v -0.008 c 0.61,0.051 1.38,-0.449 1.76,0.461 0.27,0.789 -0.24,1.18 -0.82,1.66 -1.22,1.004 -0.94,2.813 0.35,3.496 2.32,1.122 5.72,-0.781 5.8,-3.3 0.23,-3.782 3.75,-6.77 7.89,-7.004 2.95,-0.176 5.86,-0.598 9,-0.906 -0.38,-0.86 -1.9,-0.899 -1.01,-2.043 0.63,-0.86 1.59,-0.821 2.41,-0.36 0.73,0.418 1.62,0.613 1.91,1.531 0.28,0.754 0.6,1.231 1.5,1.067 0.68,-0.168 1.34,-0.645 1.45,-1.289 0.73,-3.731 0.16,-7.348 -1.29,-10.805 -0.44,-1.062 -1.71,-1.336 -2.82,-0.984 z m -48.61,67.695 c -0.21,-1.086 -1.46,-0.887 -1.72,-1.727 1.08,-2.121 1.2,-2.121 3.24,-1.269 0.09,-1.008 -1.12,-2.109 -2.65,-2.102 -1.1,0 -2.26,0.625 -2.35,2.043 -0.18,2.481 1.82,2.45 3.48,3.055 z m 11.45,6.348 c 0.86,1.718 1.55,3.605 3.61,4.328 1.9,-2.305 2.21,-5.606 4.98,-7.824 -1.41,-0.079 -2.55,0.226 -3.33,-0.868 -0.69,-0.949 -0.71,-1.984 -0.71,-3.039 0,-2.351 -2.3,-3.914 -4.46,-3.125 -0.75,0.274 -1.62,0.5 -2.44,0.461 -0.72,-0.019 -1.29,-1.054 -2.63,-0.351 3.4,2.793 3.27,6.98 4.98,10.418 z m 20.79,-41.414 c 0.71,2.468 1.24,5.203 3.85,6.648 0.42,0.234 0.88,0.488 1.46,0.285 2.04,-0.695 4.35,-0.402 6.35,-1.476 0.96,-0.477 1.71,0.175 2.56,0.695 2.91,1.785 3.55,1.473 5.75,-1.066 1.38,-1.551 3.16,-2.801 5.09,-3.75 1.26,-0.672 3.24,-1.629 2.58,-3.094 -0.63,-1.301 -2.87,-1.496 -4.51,-1.153 -1.38,0.254 -2.81,0.77 -4.1,1.297 -3.45,1.321 -6.66,1.133 -9.64,-1.121 -0.92,-0.695 -1.84,-1.027 -2.94,-0.988 -1.52,0.09 -2.89,0.332 -3.73,-1.609 -0.57,-1.184 -2.25,-0.43 -3.61,-0.391 0.89,1.68 3,0.41 3.89,2.059 -1.64,0.753 -3.49,1.777 -3,3.664 z m 151.07,-30.129 c -0.03,-0.039 -0.06,-0.086 -0.15,-0.137 -0.25,-0.84 -0.51,-0.508 -0.71,0.031 -0.04,0.172 0.58,0.106 0.85,0.184 -15.98,49.258 -52.23,89.191 -98.88,109.699 -2.49,1.074 -5.02,2.02 -7.55,2.977 -5.84,2.257 -11.85,4.191 -17.95,5.839 -4.78,1.25 -9.57,2.395 -14.48,3.274 -2.45,0.437 -4.89,0.789 -7.34,1.121 -3.19,0.051 -6.39,0.02 -9.62,-0.301 13.04,-0.371 24.93,-5.539 37.97,-7.883 -2.85,-2.011 -2.94,-2.117 -3.38,-1.746 -3.02,2.274 -6.27,2.032 -9.7,1.043 0.87,-1.211 3.15,-0.711 3.17,-2.82 0,-2.012 1.29,-3.242 2.93,-3.957 -0.56,-2.344 -1.84,-3.906 -4.31,-4.063 0.91,-3.085 3.14,-4.734 5.93,-6.582 h -5.91 c 0.12,-0.73 0.3,-1.152 0.12,-1.562 -0.22,-0.606 -1.02,-1.082 -3.31,-2.324 -0.33,0.234 -0.2,0.781 -0.62,0.949 -0.14,0.078 -0.27,0.105 -0.6,0.047 -0.64,-1.582 -3.43,-1.629 -3.38,-4.18 0,-0.176 -0.54,-0.527 -0.87,-0.547 -0.53,-0.027 -1.27,0.352 -1.27,0.754 0.05,3.242 -2.5,1.375 -3.77,1.942 0.98,-1.211 1.96,-2.481 2.98,-3.79 -1.18,-0.41 -2.31,0.598 -3.29,-0.554 -1,-1.133 -0.16,-2.18 -0.05,-3.223 -1.43,-0.324 -2.66,0.945 -3.86,0.418 -0.48,-0.848 0.56,-1.101 0.18,-2.156 -0.66,0.918 -2.05,0.144 -2.51,1.543 -0.4,1.504 -1.41,2.578 -2.89,3.328 1.76,-0.145 3.31,-0.508 4.95,-0.703 1.32,-0.156 2.78,-0.137 3.22,1.406 0.38,1.535 -0.97,2.039 -2.09,2.539 -3.26,1.496 -6.86,1.75 -10.32,2.473 -0.56,0.117 -1.34,-0.012 -1.36,0.527 -0.08,1.766 -1.65,1.531 -2.47,1.61 -3.9,0.382 -7.65,-1.055 -10.88,-2.977 -3.48,-2.023 -6.35,-5.059 -9.26,-8.008 -1.54,-1.594 -3.31,-2.988 -5.49,-3.508 -4.04,-0.879 -5.84,-3.347 -5.95,-7.332 0,-0.285 0,-0.605 -0.14,-0.91 -0.46,-1.152 -0.08,-1.933 0.96,-2.625 1.36,-0.898 2,-2.062 1.53,-3.84 -0.31,-1.191 -0.26,-2.519 -0.22,-3.816 0.07,-1.301 0.07,-2.961 -2.42,-3.027 -2.31,-0.04 -5.09,-0.024 -6.54,-2.774 -1.19,-2.297 -3.26,-3 -5.66,-2.773 -0.58,1.621 1.16,2.507 1.2,4.07 -1.55,0.535 -1.64,1.797 -1.86,3.328 -0.34,1.918 -1.38,3.703 -2.11,5.625 0.99,0.688 1.97,1.555 2.24,3.07 -0.62,0.235 -1.22,0.497 -1.82,0.723 0.13,0.691 1.02,0.809 0.95,1.57 -2.8,0.383 -5,-0.808 -6.22,-3.191 -0.8,-1.582 0.32,-3.195 -0.24,-4.797 -0.16,-0.516 0.89,-0.652 1.34,-1.094 0.44,-0.535 0.82,-1.074 0.5,-1.843 -0.38,-0.821 -1.06,-0.84 -1.77,-0.567 -0.65,0.301 -1.17,0.098 -1.54,-0.488 -0.68,-1.027 -0.62,-2.473 -2.19,-3.106 -0.61,-0.265 -0.07,-1.21 0.75,-1.406 -0.91,-1.23 -2.69,-1.523 -3.44,-2.902 0.18,-0.215 0.28,-0.457 0.4,-0.457 1.75,0.183 3.51,0.43 5.3,0.605 0.7,-1.386 0.54,-2.765 0.23,-4.191 -1.53,0.031 -2.89,0.683 -4.36,0.332 -0.64,-0.125 -1.17,-0.176 -1.3,-0.977 -0.09,-0.742 -0.09,-1.347 0.75,-1.648 1.98,-0.723 2.64,-2.414 3.18,-4.199 0.93,-3.559 -1.96,-6.965 -5.59,-6.965 -2.84,0 -5.52,0.715 -8.23,1.359 -2.42,0.574 -4,-0.453 -4.75,-2.844 -1.01,-2.968 -1.22,-6.25 -3.89,-8.464 -0.63,-0.43 -1.15,-1.516 -0.78,-2.063 1.31,-1.648 0.17,-3.133 -0.23,-4.832 2.83,-0.273 5.65,-0.273 5.74,-4.023 -0.6,-0.325 -1.05,-1.075 -1.54,-1.758 -1.06,-1.535 -2.39,-2.981 -4.3,-3.547 -4.69,-1.453 -6.66,-4.93 -7.22,-9.52 -0.07,-0.371 -0.07,-0.871 -0.31,-1.046 -2.11,-1.817 -4.22,-3.797 -7.02,-4.325 -1.45,-0.273 -2.62,-0.754 -3.51,-1.867 -1.96,-2.39 -5.21,-3.797 -5.91,-7.195 -0.05,-0.188 -0.22,-0.43 -0.47,-0.5 -3.36,-1.426 -3.66,-5.469 -6.29,-7.567 -0.46,-0.402 -0.84,-1.808 -0.55,-2.277 1.62,-2.5 0.53,-5.105 0.26,-7.527 -0.55,-3.879 -1.31,-7.844 -4.26,-10.84 4.82,-3.977 10.02,-7.453 15.79,-10.188 7.13,-3.378 14.73,-5.086 22.55,-5.644 6.51,-0.457 12.95,-0.809 19.35,0.371 10.37,1.867 20.82,3.516 31.14,5.93 11.71,2.742 23.73,5 35.86,5.312 16.7,0.43 33.23,-1.172 48.83,-7.805 0.55,-0.234 1.1,-0.468 1.57,-0.734 1.62,0.266 3.09,0.734 4.11,2.277 0.27,0.442 1.02,0.657 1.6,0.754 1.47,0.215 2.58,1.297 3.8,1.805 3.22,1.191 5.02,4.309 8.22,5.527 1.49,0.559 3.11,1.504 3.04,3.711 -0.05,1.094 1.15,1.282 1.82,1.836 1.72,1.367 4.75,1.184 5,4.231 0.02,0.203 0.42,0.527 0.69,0.566 1.24,0.25 1.66,1.024 1.64,2.254 0,0.773 0.56,1.289 1.18,1.555 1.09,0.515 1.23,1.238 0.82,2.234 -0.27,0.879 -0.6,2.16 0.07,2.578 1.87,1.055 1.56,3.047 2.31,4.512 0.29,0.664 0.89,2.109 0.2,2.531 -1.72,1.121 -2.47,3.379 -4.98,3.457 -3.33,0.117 -5.21,2.762 -4.72,5.848 1.1,0.598 1.59,-0.887 2.65,-0.762 3.65,0.363 7.42,-0.555 11.09,0.93 0.51,0.242 1.44,0.281 1.98,0 2.26,-1.34 4.88,-2.18 6.84,-4.25 1.71,-1.902 3.69,-3.469 6.18,-4.473 2.4,-0.984 3.88,-2.859 4.7,-5.39 0.47,-1.446 0.96,-2.86 1.59,-4.207 2,-4.387 4.5,-8.555 6.17,-13.079 0.76,-1.882 2.09,-3.699 3.95,-4.902 1.4,-0.918 2.29,-0.332 2.58,1.211 0.07,0.391 -0.33,0.891 0.42,1.242 2.25,-2.558 1.67,-6.797 5.04,-8.898 1.62,2.929 2.69,6.277 2.52,9.179 -0.29,4.141 -0.05,8.508 -1.81,12.5 -0.84,1.875 -0.97,3.821 0.65,5.508 0.47,0.481 0.57,1.184 0.73,1.867 0.94,4.493 0.94,9.129 2.56,13.485 0.19,0.43 0.28,0.859 0.28,1.32 0,0.449 -0.06,0.875 -0.15,1.309 0,0.039 -0.04,0.039 -0.04,0.039 0,0.058 -0.05,0.105 -0.05,0.144 -0.11,0.45 -0.29,0.84 -0.42,1.27 0.05,0.019 0.11,0.031 0.13,0.058 0.18,-0.457 0.25,-0.878 0.29,-1.328 0,-0.039 0.05,-0.086 0.09,-0.125 v -0.019 c 0.2,-0.071 0.38,-0.188 0.49,-0.313 0.15,-0.136 0.33,-0.312 0.51,-0.48 2.53,-2.703 3.91,-6.297 6.78,-8.778 1.22,-1.132 2.06,-1.445 2.58,0.547 1.99,-1.027 2.14,-0.824 2.68,3.485 0.89,-2.684 1.71,-4.942 2.39,-7.227 1.74,-5.215 3.26,-10.437 2.96,-16.074 -0.13,-1.289 -0.05,-2.996 0.98,-3.84 1.98,-1.57 1.53,-3.75 2.11,-6.023 -0.82,0.832 -0.82,1.886 -1.75,2.336 -0.03,-0.129 -0.03,-0.235 -0.03,-0.344 0.12,-0.809 0.7,-1.485 0.18,-2.207 -0.67,-0.195 -1.33,-0.36 -2.36,-0.645 1.03,-3.718 3.28,-7.215 1.63,-11.218 0.84,0.527 0.93,1.394 1.91,1.628 -0.75,-3.503 0.91,-6.621 1.17,-9.988 0.29,-3.086 -0.73,-6.387 0.59,-9.621 0.52,1.926 0.59,3.84 0.77,5.742 0.4,4.981 0.76,9.953 0.76,15.032 0,19.636 -3.2,38.496 -8.94,56.199" /></g></g></svg>