<?xml version="1.0" encoding="utf-8"?>
<!-- Generator: Adobe Illustrator 22.1.0, SVG Export Plug-In . SVG Version: 6.00 Build 0)  -->
<svg version="1.1"
	 id="svg2" xmlns:cc="http://creativecommons.org/ns#" xmlns:dc="http://purl.org/dc/elements/1.1/" xmlns:rdf="http://www.w3.org/1999/02/22-rdf-syntax-ns#" xmlns:svg="http://www.w3.org/2000/svg"
	 xmlns="http://www.w3.org/2000/svg" xmlns:xlink="http://www.w3.org/1999/xlink" x="0px" y="0px" viewBox="0 0 397.9 119.9"
	 style="enable-background:new 0 0 397.9 119.9;" xml:space="preserve">
<style type="text/css">
	.st0{fill:#000000;}
</style>
<path class="st0" d="M27.8,39.4c0,3.8-2.9,6.4-7.8,6.4h-6.4V32.9h6.4c4.9,0,7.8,2.2,7.8,6.4V39.4z M41.3,38.8v-0.1
	c0-10.8-8-17.2-20.4-17.2H0v48.2c3.7-1.1,8.2-2.4,13.6-3.8v-9.4h6.7C32.5,56.4,41.3,50.3,41.3,38.8 M55.8,51.1l5.5-13.9l5.5,13.9
	H55.8z M38.5,59.8c12.1-2.6,26.3-5.4,42.5-7.9L68,21.1H54.9L38.5,59.8z M106.5,48.3c4.9-0.6,9.9-1.2,15-1.8l-19.5-25H89.4v29.2
	c4.3-0.6,8.8-1.3,13.4-1.9v-5.2L106.5,48.3z M122.2,46.4c4.4-0.5,8.9-0.9,13.4-1.4V21.5h-13.4V46.4z M140.3,44.7
	c15.2-1.4,31.5-2.6,48.9-3.3c-2.1-11.5-12.1-20.3-24.3-20.3C151.7,21.1,140.9,31.6,140.3,44.7 M237.3,40.4c0.1-0.7,0.1-1.4,0.1-2.1
	v-0.1c0-4.8-1.5-8.6-4.3-11.4c-3.3-3.4-8.5-5.3-15.9-5.3H194v19.7c4.5-0.2,9-0.3,13.6-0.4v-7.6h8.9c4.5,0,7.3,2,7.3,5.8v0.1
	c0,0.5,0,0.9-0.1,1.3C228.2,40.4,232.7,40.4,237.3,40.4 M263.9,40.7c4.5,0.1,9.1,0.2,13.7,0.4l-8.5-20h-13.1l-8.2,19.4
	c4.4,0,8.8,0.1,13.2,0.2l1.4-3.5L263.9,40.7z M329.1,44c4.5,0.3,9,0.7,13.5,1.1V21.5h-14.3l-11.7,19l-11.7-19h-14.3v20.2
	c12.2,0.6,24.6,1.3,37.5,2.3l1.1-1.6V44z M389.3,50l-12.2-28.9H364l-10.6,25c4.3,0.4,8.6,0.8,12.9,1.3l4.1-10.2l4.4,11.1
	C379.6,48.9,384.5,49.4,389.3,50"/>
<path class="st0" d="M0.4,70.4h13.2v-3C8.4,68.6,4,69.6,0.4,70.4 M74.3,70.4h14.5l-6.2-14.7c-17.4,2.3-32.5,4.8-45.3,7.1l-3.2,7.6
	h14.3l3.5-8.7h18.9L74.3,70.4z M89.4,70.4h13.4V53.2c-4.6,0.5-9.1,1.1-13.4,1.6V70.4z M123.7,70.4h11.9V49.9
	c-9,0.8-17.6,1.6-25.9,2.5L123.7,70.4z M189.6,46.3c-17.3,0.8-33.7,1.9-49,3.2c1.8,11.8,12,20.9,24.4,20.9
	C178.4,70.4,189.3,59.7,189.6,46.3 M275.5,70.4H290l-10.7-25.2c-4.6-0.1-9.2-0.2-13.8-0.2l2.4,6.1h-11l2.5-6.2c-4.5,0-9,0-13.4,0
	L236.7,67l-9.3-13.7c4-1.7,7.1-4.5,8.8-8.3c-14.6,0.2-28.7,0.5-42.1,1.1v24.3h13.6V55.6h5.9l9.9,14.8h11.9h3.8h0h10.5l3.5-8.7h18.9
	L275.5,70.4z M290.6,70.4h13.3V45.9c-4.5-0.2-8.9-0.3-13.3-0.4V70.4z M316.6,61.5l9.6-14.6c-6.7-0.3-13.4-0.6-20-0.9l10.2,15.5
	H316.6z M329.1,70.4h13.5V47.8c-4.5-0.3-9-0.5-13.5-0.8V70.4z M397.9,70.4l-8-19c-4.8-0.5-9.6-0.9-14.4-1.3l0.4,0.9h-11l0.7-1.7
	c-4.4-0.3-8.8-0.7-13.1-1l-9.3,22h14.3l3.5-8.7h18.9l3.6,8.7H397.9z"/>
<path class="st0" d="M342.1,97.7h1.2v-9.7h3.6v-1.1h-8.5v1.1h3.6V97.7z M328.9,97.7h7.9v-1.1h-6.6v-3.8h5.9v-1.1h-5.9V88h6.6v-1.1
	h-7.8V97.7z M316.7,97.7h1.2v-8.8l7,8.8h1V86.9h-1.2v8.6l-6.8-8.6h-1.1V97.7z M306.7,93.8l2.5-5.5l2.4,5.5H306.7z M303.7,97.7h1.2
	l1.3-2.8h5.9l1.3,2.8h1.3l-4.9-10.9h-1.1L303.7,97.7z M295,97.7h7.3v-1.1h-6.1v-9.7H295V97.7z M286,92.8v-4.7h2.7
	c1.7,0,2.9,0.8,2.9,2.3v0c0,1.4-1.2,2.4-3,2.4H286z M284.8,97.7h1.2v-3.8h2.6c2.3,0,4.2-1.2,4.2-3.5v0c0-2.1-1.6-3.4-4-3.4h-4V97.7z
	 M272.5,97.7h1.2v-4.3l4.5-6.5h-1.4l-3.7,5.4l-3.6-5.4H268l4.5,6.5V97.7z M257.4,97.7h1.2v-4.8h6.2v4.8h1.2V86.9h-1.2v4.8h-6.2v-4.8
	h-1.2V97.7z M250.3,97.7h1.2v-9.7h3.6v-1.1h-8.5v1.1h3.6V97.7z M239.5,97.7h7.3v-1.1h-6.1v-9.7h-1.2V97.7z M229.4,93.8l2.5-5.5
	l2.4,5.5H229.4z M226.4,97.7h1.2l1.3-2.8h5.9l1.3,2.8h1.3l-4.9-10.9h-1.1L226.4,97.7z M217,97.7h7.9v-1.1h-6.6v-3.8h5.9v-1.1h-5.9
	V88h6.6v-1.1H217V97.7z M205.3,97.7h1.2v-4.8h6.2v4.8h1.2V86.9h-1.2v4.8h-6.2v-4.8h-1.2V97.7z M190.6,93.8l2.5-5.5l2.4,5.5H190.6z
	 M187.6,97.7h1.2l1.3-2.8h5.9l1.3,2.8h1.3l-4.9-10.9h-1.1L187.6,97.7z M174,92.4v-4.4h3.3c1.7,0,2.8,0.8,2.8,2.1v0
	c0,1.4-1.2,2.2-2.8,2.2H174z M172.8,97.7h1.2v-4.2h3.1l3.1,4.2h1.5l-3.3-4.4c1.7-0.3,2.9-1.4,2.9-3.1v0c0-0.8-0.3-1.6-0.8-2.1
	c-0.7-0.7-1.7-1.1-3.1-1.1h-4.6V97.7z M164.7,96.8c-2.5,0-4.2-2-4.2-4.4v0c0-2.4,1.8-4.4,4.2-4.4c2.5,0,4.2,2,4.2,4.4v0
	C168.9,94.8,167.2,96.8,164.7,96.8 M164.7,97.9c3.3,0,5.5-2.6,5.5-5.6v0c0-3-2.2-5.5-5.5-5.5c-3.3,0-5.5,2.6-5.5,5.6v0
	C159.2,95.3,161.4,97.9,164.7,97.9 M149.8,97.7h1.2V93h5.8v-1.1H151v-3.8h6.5v-1.1h-7.7V97.7z M139,97.9c2.1,0,3.7-1.2,3.7-3v0
	c0-1.6-1.1-2.5-3.5-3c-2.4-0.5-2.9-1.1-2.9-2.1v0c0-1,0.9-1.7,2.3-1.7c1.1,0,2.1,0.4,3.1,1.2l0.7-0.9c-1.1-0.9-2.2-1.3-3.8-1.3
	c-2,0-3.5,1.2-3.5,2.9v0c0,1.8,1.1,2.6,3.6,3.1c2.3,0.5,2.8,1,2.8,2v0c0,1.1-1,1.8-2.4,1.8c-1.5,0-2.6-0.5-3.7-1.5l-0.8,0.9
	C135.9,97.3,137.3,97.9,139,97.9 M123.2,97.7h1.2v-8.8l7,8.8h1V86.9h-1.2v8.6l-6.8-8.6h-1.1V97.7z M115.1,96.8c-2.5,0-4.2-2-4.2-4.4
	v0c0-2.4,1.8-4.4,4.2-4.4c2.5,0,4.2,2,4.2,4.4v0C119.4,94.8,117.6,96.8,115.1,96.8 M115.1,97.9c3.3,0,5.5-2.6,5.5-5.6v0
	c0-3-2.2-5.5-5.5-5.5c-3.3,0-5.5,2.6-5.5,5.6v0C109.6,95.3,111.8,97.9,115.1,97.9 M105.7,97.7h1.2V86.9h-1.2V97.7z M98.5,97.7h1.2
	v-9.7h3.6v-1.1h-8.5v1.1h3.6V97.7z M88.3,97.9c2.7,0,4.5-1.6,4.5-4.8v-6.2h-1.2v6.3c0,2.4-1.3,3.6-3.2,3.6c-2.1,0-3.3-1.3-3.3-3.6
	v-6.2h-1.2v6.3C83.8,96.2,85.6,97.9,88.3,97.9 M74.7,97.7H82v-1.1H76v-9.7h-1.2V97.7z M66.7,96.8c-2.5,0-4.2-2-4.2-4.4v0
	c0-2.4,1.8-4.4,4.2-4.4c2.5,0,4.2,2,4.2,4.4v0C70.9,94.8,69.2,96.8,66.7,96.8 M66.7,97.9c3.3,0,5.5-2.6,5.5-5.6v0
	c0-3-2.2-5.5-5.5-5.5c-3.3,0-5.5,2.6-5.5,5.6v0C61.2,95.3,63.4,97.9,66.7,97.9 M55.5,97.9c2.1,0,3.7-1.2,3.7-3v0
	c0-1.6-1.1-2.5-3.5-3c-2.4-0.5-2.9-1.1-2.9-2.1v0c0-1,0.9-1.7,2.3-1.7c1.1,0,2.1,0.4,3.1,1.2l0.7-0.9c-1.1-0.9-2.2-1.3-3.8-1.3
	c-2,0-3.5,1.2-3.5,2.9v0c0,1.8,1.1,2.6,3.6,3.1c2.3,0.5,2.8,1,2.8,2v0c0,1.1-1,1.8-2.4,1.8c-1.5,0-2.6-0.5-3.7-1.5l-0.8,0.9
	C52.4,97.3,53.8,97.9,55.5,97.9"/>
</svg>
