<?xml version="1.0" encoding="utf-8"?>
<!-- Generator: Adobe Illustrator 22.1.0, SVG Export Plug-In . SVG Version: 6.00 Build 0)  -->
<svg version="1.0" id="Layer_1" xmlns="http://www.w3.org/2000/svg" xmlns:xlink="http://www.w3.org/1999/xlink" x="0px" y="0px"
	 viewBox="0 0 60 60" enable-background="new 0 0 60 60" xml:space="preserve">
<g>
	<defs>
		<path id="SVGID_1_" d="M59,60H1c-0.6,0-1-0.4-1-1V1c0-0.6,0.4-1,1-1h58c0.6,0,1,0.4,1,1v58C60,59.6,59.6,60,59,60z"/>
	</defs>
	<clipPath id="SVGID_2_">
		<use xlink:href="#SVGID_1_"  overflow="visible"/>
	</clipPath>
	<g clip-path="url(#SVGID_2_)">
		<g transform="scale(840)">
			<g>
				<rect x="0" y="0" fill="#27316F" width="0.1" height="0.1"/>
			</g>
			<g>
				<path fill="#020203" d="M0,0L0,0 M0,0L0,0"/>
				<polygon fill="#FFFFFF" points="0,0 0,0 0,0 0,0 0,0 0,0 0,0 0,0 0,0 0,0 0,0 0,0 				"/>
			</g>
			<g>
				<defs>
					<path id="SVGID_3_" d="M0,0L0,0L0,0L0,0L0,0L0,0z M0,0L0,0L0,0L0,0L0,0L0,0z"/>
				</defs>
				<clipPath id="SVGID_4_">
					<use xlink:href="#SVGID_3_"  overflow="visible"/>
				</clipPath>
				<g clip-path="url(#SVGID_4_)">
					<path fill="#020203" d="M0,0L0,0 M0,0L0,0"/>
					<polygon fill="#E52521" points="0,0 0,0 0,0 0,0 0,0 0,0 0,0 0,0 0,0 0,0 0,0 0,0 					"/>
				</g>
			</g>
			<g>
				<path fill="#020203" d="M0,0L0,0 M0,0L0,0"/>
				<polygon fill="#FFFFFF" points="0,0 0,0 0,0 0,0 0,0 0,0 0,0 0,0 0,0 0,0 0,0 0,0 				"/>
			</g>
			<g>
				<path fill="#020203" d="M0,0L0,0 M0,0L0,0"/>
				<polygon fill="#E52521" points="0,0 0,0 0,0 0,0 0,0 0,0 0,0 0,0 0,0 0,0 0,0 0,0 				"/>
			</g>
			<g>
				<path fill="#27316F" d="M0,0L0,0L0,0L0,0L0,0L0,0L0,0z"/>
			</g>
		</g>
		<g>
			<g>
				<g id="Comwlth" transform="scale(2.1)">
					<g id="Star7_8_">
						<path fill="#FFFFFF" d="M-0.1,36l1.7,5.4l5.3-2l-3.1,4.7L8.7,47L3,47.5l0.8,5.6L-0.1,49L-4,53.1l0.8-5.6L-8.9,47l4.9-2.9
							l-3.1-4.7l5.3,2L-0.1,36z"/>
					</g>
				</g>
				<g id="αCrucis">
					<g id="Star7_7_">
						<path fill="#FFFFFF" d="M60,45.7l0.8,2.6l2.5-1l-1.5,2.3l2.3,1.4l-2.7,0.2l0.4,2.7l-1.9-2l-1.9,2l0.4-2.7l-2.7-0.2l2.3-1.4
							l-1.5-2.3l2.5,1L60,45.7z"/>
					</g>
				</g>
				<g id="βCrucis">
					<g id="Star7_6_">
						<path fill="#FFFFFF" d="M45,21.9l0.8,2.6l2.5-1l-1.5,2.3l2.3,1.4l-2.7,0.2l0.4,2.7l-1.9-2l-1.9,2l0.4-2.7l-2.7-0.2l2.3-1.4
							l-1.5-2.3l2.5,1L45,21.9z"/>
					</g>
				</g>
				<g id="γCrucis">
					<g id="Star7_5_">
						<path fill="#FFFFFF" d="M60,5.6l0.8,2.6l2.5-1l-1.5,2.3l2.3,1.4l-2.7,0.2l0.4,2.7l-1.9-2l-1.9,2l0.4-2.7l-2.7-0.2l2.3-1.4
							l-1.5-2.3l2.5,1L60,5.6z"/>
					</g>
				</g>
				<g id="δCrucis">
					<g id="Star7_4_">
						<path fill="#FFFFFF" d="M73.4,17.9l0.8,2.6l2.5-1l-1.5,2.3l2.3,1.4l-2.7,0.2l0.4,2.7l-1.9-2l-1.9,2l0.4-2.7l-2.7-0.2l2.3-1.4
							L70,19.5l2.5,1L73.4,17.9z"/>
					</g>
				</g>
				<g id="εCrucis">
					<g id="Star5_1_">
						<path fill="#FFFFFF" d="M66,29.9l0.7,1.6l1.7,0.1l-1.3,1.1l0.4,1.7L66,33.6l-1.5,0.9l0.4-1.7l-1.3-1.1l1.7-0.1L66,29.9z"/>
					</g>
				</g>
			</g>
		</g>
		<g>
			<defs>
				<rect id="SVGID_5_" x="-30.2" y="-0.1" width="59.9" height="30.1"/>
			</defs>
			<clipPath id="SVGID_6_">
				<use xlink:href="#SVGID_5_"  overflow="visible"/>
			</clipPath>
			<g clip-path="url(#SVGID_6_)">
				<g>
					<rect x="-30.2" y="-0.1" fill="#27316F" width="59.9" height="30.1"/>
				</g>
				<g>
					<g>
						<path fill="none" d="M-30.2,29.9L-30.2,29.9l20-10l4-2l6-3l6-3l4-2L29.7,0l0.2-0.1h0 M29.9,29.9L29.9,29.9l-0.2-0.1L9.9,19.9
							l-4-2l-6-3l-6-3l-4-2l-20-10h0"/>
					</g>
					<g>
						<polygon fill="#FFFFFF" points="12.6,11.9 6.6,14.9 12.6,17.9 16.6,19.9 29.7,26.5 29.7,29.9 23.2,29.9 4.9,20.8 2.9,19.8 
							-0.1,18.3 -3.1,19.8 -5.1,20.8 -23.5,29.9 -28.8,32.6 -30.2,29.9 -30.2,29.9 -30.2,29.9 -31.5,27.3 -30.2,26.6 -16.9,19.9 
							-12.8,17.9 -6.8,14.9 -12.8,11.9 -16.9,9.9 -30.2,3.3 -31.5,2.6 -30.2,-0.1 -30.2,-0.1 -28.8,-2.8 -23.5,-0.1 -5.1,9.1 
							-3.1,10.1 -0.1,11.6 2.9,10.1 4.9,9.1 23.2,-0.1 28.6,-2.8 29.9,-0.1 31.3,2.6 29.7,3.4 16.6,9.9 						"/>
					</g>
				</g>
				<g>
					<defs>
						<path id="SVGID_7_" d="M-30.2-0.1v15H40v15h-10L-30.2-0.1z M-30.2,29.9v5h30.1V-0.1h30.1L-30.2,29.9z"/>
					</defs>
					<clipPath id="SVGID_8_">
						<use xlink:href="#SVGID_7_"  overflow="visible"/>
					</clipPath>
					<g clip-path="url(#SVGID_8_)">
						<path fill="#020203" d="M-30.2-0.1l60.1,30.1 M29.9-0.1l-60.1,30.1"/>
					</g>
					<g clip-path="url(#SVGID_8_)">
						<polygon fill="#C91433" points="29,31.7 -0.1,17.2 -29.3,31.7 -31.1,28.2 -4.6,14.9 -31.1,1.7 -29.3,-1.9 -0.1,12.7 29,-1.9 
							30.8,1.7 4.4,14.9 30.8,28.2 						"/>
					</g>
				</g>
				<g>
					<path fill="none" d="M-0.1,29.9V18.3v-3.4v-3.4V-0.1 M40,14.9H29.7H6.6h-6.7h-6.7h-23.3"/>
				</g>
				<g>
					<polygon fill="#FFFFFF" points="40,9.9 40,19.9 4.9,19.9 4.9,29.9 -5.1,29.9 -5.1,19.9 -30.2,19.9 -30.2,9.9 -5.1,9.9 
						-5.1,-0.1 4.9,-0.1 4.9,9.9 					"/>
				</g>
				<g>
					<path fill="none" d="M-0.1,29.9V18.3v-3.4v-3.4V-0.1 M40,14.9H29.7H6.6h-6.7h-6.7h-23.3"/>
				</g>
				<g>
					<polygon fill="#C91433" points="40,11.9 40,17.9 2.9,17.9 2.9,29.9 -3.1,29.9 -3.1,17.9 -30.2,17.9 -30.2,11.9 -3.1,11.9 
						-3.1,-0.1 2.9,-0.1 2.9,11.9 					"/>
				</g>
			</g>
		</g>
	</g>
</g>
<polygon fill="#FFFFFF" points="7.2,47.1 3,47.5 3.5,50.6 3.8,53.1 1.5,50.6 0,49.1 0,36.3 1.6,41.4 6.9,39.3 3.8,44.1 7.2,46.1 
	8.7,47 "/>
</svg>
