<?xml version="1.0" encoding="utf-8"?>
<!-- Generator: Adobe Illustrator 22.1.0, SVG Export Plug-In . SVG Version: 6.00 Build 0)  -->
<svg version="1.0" id="Layer_1" xmlns="http://www.w3.org/2000/svg" xmlns:xlink="http://www.w3.org/1999/xlink" x="0px" y="0px"
	 viewBox="0 0 60 60" enable-background="new 0 0 60 60" xml:space="preserve">
<g>
	<g>
		<defs>
			<path id="SVGID_1_" d="M59,60H1c-0.6,0-1-0.4-1-1V1c0-0.6,0.4-1,1-1h58c0.6,0,1,0.4,1,1v58C60,59.6,59.6,60,59,60z"/>
		</defs>
		<clipPath id="SVGID_2_">
			<use xlink:href="#SVGID_1_"  overflow="visible"/>
		</clipPath>
		<g clip-path="url(#SVGID_2_)">
			<rect x="-15" fill="#FFFFFF" width="90" height="60"/>
			<rect x="-15" fill="#020203" width="90" height="18"/>
			<rect x="-15" y="21" fill="#BB1818" width="90" height="18"/>
			<rect x="-15" y="42" fill="#0C682F" width="90" height="18"/>
		</g>
	</g>
</g>
<g>
	<path id="spearshape" fill="#020203" d="M19.3,47.8l0.6,0.4l17.5-30.3c1-0.3,1.6-1.2,2.1-2.2c0.5-0.7,2-3.3,2.6-6.7
		c-2.6,2.3-4.1,4.8-4.5,5.5c-0.6,1-1.1,1.9-0.9,3L19.3,47.8z"/>
</g>
<g>
	<path id="spearshape_1_" fill="#FFFFFF" d="M19.3,47.8l0.6,0.4l17.5-30.3c1-0.3,1.6-1.2,2.1-2.2c0.5-0.7,2-3.3,2.6-6.7
		c-2.6,2.3-4.1,4.8-4.5,5.5c-0.6,1-1.1,1.9-0.9,3L19.3,47.8z"/>
</g>
<g id="spear_1_">
	<g>
		<path id="spearshape_2_" fill="#FFFFFF" d="M40.7,47.8l-0.6,0.4L22.6,17.8c-1-0.3-1.6-1.2-2.1-2.2c-0.5-0.6-2-3.2-2.6-6.6
			c2.6,2.3,4.1,4.8,4.5,5.5c0.6,1,1.1,1.9,0.9,3L40.7,47.8z"/>
	</g>
</g>
<path fill="#BB1818" d="M22.9,39c1.1,3,4.9,9,7.1,9s6-6,7.1-9V21c-1.1-3-4.9-9-7.1-9s-6,6-7.1,9C22.9,21,22.9,39,22.9,39z"/>
<path id="deco_r" fill="#020203" d="M37.1,39c1.1-3,1.9-6,1.9-9s-0.8-6-1.9-9c-1.1,3-1.9,6-1.9,9S36,36,37.1,39z"/>
<g transform="scale(-1,1)">
	<path id="deco_r_1_" fill="#020203" d="M-22.9,39c-1.1-3-1.9-6-1.9-9s0.8-6,1.9-9c1.1,3,1.9,6,1.9,9S-21.8,36-22.9,39z"/>
</g>
<ellipse fill="#FFFFFF" cx="30" cy="30" rx="1.5" ry="2.2"/>
<path id="deco_br" fill="#FFFFFF" d="M30.4,32.2c0,0,1.5,3,1.5,7.9S30.4,48,30.4,48V32.2z"/>
<path id="deco_br_1_" fill="#FFFFFF" d="M29.6,27.8c0,0-1.5-3-1.5-7.9s1.5-7.9,1.5-7.9V27.8z"/>
<path id="deco_br_2_" fill="#FFFFFF" d="M29.6,32.2c0,0-1.5,3-1.5,7.9s1.5,7.9,1.5,7.9V32.2z"/>
<path id="deco_br_3_" fill="#FFFFFF" d="M30.4,27.8c0,0,1.5-3,1.5-7.9S30.4,12,30.4,12V27.8z"/>
</svg>
