<svg xmlns="http://www.w3.org/2000/svg" width="36.462" height="36.462" viewBox="8.41400146484375 8.4150390625 20.267406463623047 20.271408081054688"><defs><style>path{fill:#ffffff;}</style></defs><g transform="translate(-561 -4945)"><g transform="translate(569.414 4953.415)"><path d="M225.507,222.008a3.5,3.5,0,1,0,3.5,3.5A3.5,3.5,0,0,0,225.507,222.008Zm0,6.2a2.7,2.7,0,1,1,2.7-2.7A2.7,2.7,0,0,1,225.507,228.2Zm0,0" transform="translate(-213.194 -213.191)"/><path d="M19.941,18.036l-3.152-3.152a5.158,5.158,0,0,0-1.7-6.921V.4a.4.4,0,0,0-.4-.4H9.135A1.984,1.984,0,0,0,7.547.8,1.984,1.984,0,0,0,5.958,0H.4A.4.4,0,0,0,0,.4V11.756a.4.4,0,0,0,.4.4H7.152c0,.053,0,.106,0,.159a5.162,5.162,0,0,0,7.735,4.476l3.152,3.152a1.347,1.347,0,0,0,1.9-1.9ZM9.135.794H14.3V7.547A5.16,5.16,0,0,0,7.944,9.564V1.986A1.193,1.193,0,0,1,9.135.794Zm-3.177,0A1.193,1.193,0,0,1,7.149,1.986v8.183a1.976,1.976,0,0,0-1.191-.4H.794V2.383H2.605a.4.4,0,1,0,0-.794H.794V.794ZM.794,10.565H5.958a1.193,1.193,0,0,1,1.123.794H.794Zm7.149,1.748a4.369,4.369,0,1,1,4.369,4.369A4.374,4.374,0,0,1,7.944,12.312Zm11.435,7.067a.553.553,0,0,1-.781,0L15.55,16.331a5.2,5.2,0,0,0,.781-.781L19.379,18.6A.553.553,0,0,1,19.379,19.379Zm0,0"/><path d="M300.409,265.012a.4.4,0,1,0,0,.794.994.994,0,0,1,.993.993.4.4,0,1,0,.794,0A1.789,1.789,0,0,0,300.409,265.012Zm0,0" transform="translate(-288.096 -254.486)"/><path d="M90.4,40.794a.4.4,0,1,0-.281-.116A.4.4,0,0,0,90.4,40.794Zm0,0" transform="translate(-86.426 -38.411)"/></g></g></svg>