<svg xmlns="http://www.w3.org/2000/svg" width="75" height="75" viewBox="0 0 75 75"><defs><style>.a{fill:#484848;}.b{fill:#fff;}</style></defs><g transform="translate(-388 -4844)"><g transform="translate(-4543 6885)"><circle class="a" cx="37.5" cy="37.5" r="37.5" transform="translate(4931 -2041)"/></g><path class="b" d="M5626.672-1269.593c.965.646,3.535.556,4.007.391s.7-.16.074-2.122-1.574-4.487.688-6.161,3.583-2.451,3.583-2.451.152-.1.488.321a8.162,8.162,0,0,1,1.093,2.13,13.164,13.164,0,0,1,.161,1.409c.041.669.885.565.885.565s.94-.2.388-1.473-.777-2.253-.9-2.486-.321-.589-.53-.986-.35-.309.749-.819,1.113-.9,1.113-.9.317-.263,1.168.9a6.28,6.28,0,0,0,4.225,2.007c1.672.223,3.022.223,3.506-.668a1.475,1.475,0,0,0-.267-1.93c-.379-.233-1.048.206-1.048.206s-.239.074.243.728-1.02.774-1.02.774-3.412-.223-4.02-1.018-.912-1.2-.839-1.6,3.789-2.264,3.789-2.264,1.923-.554,2.513.463,1.248,3.084,2.55,4.123a1.8,1.8,0,0,0,2.46-.231s.008-.9-.8-.592a2.16,2.16,0,0,1-1.978-.385,9.3,9.3,0,0,1-.912-1.933s-.077-1.382-.464-1.716-.8-.828,0-.857,2.142,0,2.142,0a3.143,3.143,0,0,1,1.212.857c.457.577,2.685,1.9,4.182,1.121s.3-1.4,0-1.3a3.094,3.094,0,0,1-1.848.453,9.863,9.863,0,0,1-1.927-.87s-.2-.395.54-.686.54-1.217.334-1.454a2,2,0,0,0-2.158-.189c-.986.5,0-1.286,0-1.286s.785-1.117,3.457-1.823,1.057-1.594,1.057-1.594-.51-.664-2.689.663a9.646,9.646,0,0,0-3.151,3s-.376,1.279-.366,1.4-4.155,1.286-4.155,1.286-1.078.35,0-.869a21.521,21.521,0,0,1,2.513-2.333s.8-.75.859-1.263-.1-.887-.479-.885-.621.885-.621.885l-.728,1.263-1.8,1.56a9.6,9.6,0,0,0-1.394,2.329c-.151.734-5.206,3.134-5.206,3.134s-.725-.017-.389-1.012a9.705,9.705,0,0,1,1.41-2.3s.784-1.066.611-1.79-.985-.076-1.395.417-.228.823-.238,1.555-.647.694-.956,1.72a6.05,6.05,0,0,0-.323,2.073c.022.405-4.819,2.181-4.819,2.181s-.613.458-.335-1a39.419,39.419,0,0,0,.095-6.949c-.127-1.837.876-2.11,1.585-2.287s1.965,1.6,3.8,1.7a14.582,14.582,0,0,0,4.019-.514.666.666,0,0,0,.192-.976c-.37-.677-1.1.3-1.622.434a4.88,4.88,0,0,1-2.912,0,12.914,12.914,0,0,1-1.692-.815s-.328-.021,1.13-.721,1.492-.28,2.7.3,3.627-.582,3.627-.582a.622.622,0,0,0-.187-.931c-.591-.453-1.044.5-1.044.5a2.267,2.267,0,0,1-2.066.435c-1.1-.4-1.672-.6-1.188-.931a24.909,24.909,0,0,0,2.485-1.608c.534-.5.63.174,1.431.518a5.976,5.976,0,0,0,4.48.834c2.383-.523,2.443-1.6,2.443-1.6s-.054-1.132-1.095-.645-.669,1.252-2.241,1.143a7.208,7.208,0,0,1-3.751-1.143c-.764-.609.595-.671,1.854-2.06s2.128.706,4.851-1.9,1.627-2.619,1.457-2.7-1.065.828-1.9,1.666a10.89,10.89,0,0,1-3.16,1.615s-.518.432,0-1.352-.608-1.632-.608-1.632-.528-.047-.637.693a7.276,7.276,0,0,1-1.12,3.107c-.6.614-1.167,1.424-1.231.337s.234-3.893-.192-4.434-1.541-.553-1.43,0,.749.79.648,1.666-.039,3.658.364,4.043-2.646,1.838-2.646,1.838-.418.456-1.471-1.169a7.87,7.87,0,0,1-1.5-4.449c.163-.928-.839-.939-.839-.939s-.963.108-.621,1.368a14.658,14.658,0,0,0,2.961,5.442c1.438,1.44-4.628,2.572-4.628,2.572s-.652.16.186-1.88a19.353,19.353,0,0,0,.809-5.8s.031-1,0-1.971-.358-.5,2.295-.726,5.872-2.907,5.872-2.907a7.5,7.5,0,0,0,1.236-1.619c.381-.774-.123-1.35-.546-1.2s-1.667,2.287-3.068,3.006-5.24,2.517-5.357,1.647-.432-2.853-.432-2.853a18.313,18.313,0,0,1,2.133-.295c2.638-.353,6.049-2.721,6.725-3.862a1.16,1.16,0,0,0-.295-1.7s-.588-.168-1.177.818a9.89,9.89,0,0,1-6.092,3.574c-2.621.2-1.242.061-1.933-2.059s-1-2.1-1-2.1a3.709,3.709,0,0,0,2.067-.469,7.377,7.377,0,0,0,2.343-2.014s.407-.715-.175-1.044-1.5,1.044-1.5,1.044a5.134,5.134,0,0,1-2.428,1.174,2.494,2.494,0,0,1-1.618-.416l-1.167-1.285s-1.017-.3-1.36.361.682,1.869.682,1.869l1.261,1.37s.367.271,0,.736a4.943,4.943,0,0,1-1.942,1.676,5.451,5.451,0,0,1-1.848,0s-.565.72-.31.991a2.972,2.972,0,0,0,3.518-.427c1.427-1.327,1.167-1.1,1.167-1.1s.315-.337.613.539.7,3.009.7,3.009.153.155-1.523-.2a12.67,12.67,0,0,0-3.7-.073s-1.02.182-1.118.629-.122,1.218,1.272.635a6.775,6.775,0,0,1,4.694.113,2.636,2.636,0,0,1,1.012,1.787,3.334,3.334,0,0,1,0,1.8c-.293.828-1.217,1.438-3.12,1.207s-1.613-1.155-2.177-.9-.725.342-.409.9,1.878.968,2.914.923a9.909,9.909,0,0,0,2.457-.417c.49-.159-.069,6.312-1.42,6.632s-3.031-1.221-4.97-2.823-.61-2.942-.284-3.81,1.148-2.863,1.148-2.863a.807.807,0,0,0-.468-1.073c-.772-.3-.891,1.8-.891,1.8s-.953,2.744-2.711,3.371-2.078-.339-3.135-1.4,1.73-1.508,2.961-3.35,2.079-1.268,2.079-1.268.907-.272.47-.8a1.459,1.459,0,0,0-1.835-.187c-.479.349-1.823,2.324-3.3,3.2s-1.7.71-1.937.429a2.8,2.8,0,0,1-.242-1.2s-.1-.031,1.384-.849,2.717-2.2,2.791-3.2-.716-1.149-1.059-.7-.922,2.32-2.172,2.7-1.235.213-1.235.213l1.235-2.915s.37-.987-.335-1.334-1.776,1.665-1.776,1.665a5.29,5.29,0,0,0-.4,3.567c.547,1.747.4,1.323.4,1.323s-3.021-.855-3.454-1.921-1.19-1.454-1.527-1.267.25,2.334,2.052,3.188a16.429,16.429,0,0,0,3.33,1.193,2.435,2.435,0,0,1,1.376,1.318,13.29,13.29,0,0,1-1.646,1.8c-.692.552-1.165.962-1.985.859s-.922.794,0,1.015,3.663-2.144,4.134-2.46,9.277,6.359,9.277,6.359a7.227,7.227,0,0,1-3.338,2.365c-1.736.348-2.526.611-2.472,1.1s2.37.573,4.283-.48,2.242-2.174,2.887-2.4,1.343,2.018,1.365,3.3-.122,5.758-.783,6.189-2.169-2.4-5.216-3.524-2.576-.972-3.139-1.489a2.159,2.159,0,0,1-.336-2.253c.271-.806.324-3.681-.524-4.827s-1.3-.52-1.493-.176.393.26.751.617a4.437,4.437,0,0,1,.679,2.819c-.063,1.267-.533,3.154-.894,3.336a24.574,24.574,0,0,1-4.383-.693c-.27-.074-.476.008.217-1.279a10.785,10.785,0,0,0,.84-3.535v-1.853s-.347-.55-.84-.3-.513.454-.523,1.06a12.019,12.019,0,0,1-.251,3.029,11.673,11.673,0,0,1-1.144,2.29l-3.364-.933a20.351,20.351,0,0,0,.669-5.149c-.175-1.859-.335-4.744-1.721-5.636s-1.267,1.031-1.267,1.031a9.2,9.2,0,0,1,1.564,2.827c.083.908-.045,5.764-.569,6.111s-2.492-1.164-3.1-2.48a1.106,1.106,0,0,0-1.77-.432s-.764.8.733,2.37a16.77,16.77,0,0,0,4.706,2.875,6.448,6.448,0,0,1-2.353,1.972c-.978.4-3.134,1.331-2.17,1.9s3.953-1.246,3.953-1.246,2-1.972,2.217-2.123a49.578,49.578,0,0,1,5.229,1.054,3.353,3.353,0,0,1-2.112,2.1c-1.664.536-3.346.634-3.341,1.311s2.7.2,2.7.2a7.317,7.317,0,0,0,2.758-1.305,14.836,14.836,0,0,0,1.776-1.9c.192-.351,5.52,1.508,5.52,1.508s4.808,2.66,5.11,4.368a15.538,15.538,0,0,1-.851,6.83C5626.023-1270.936,5625.708-1270.239,5626.672-1269.593Z" transform="translate(-5203.849 6172)"/></g></svg>