<?xml version="1.0" encoding="utf-8"?>
<!-- Generator: Adobe Illustrator 22.1.0, SVG Export Plug-In . SVG Version: 6.00 Build 0)  -->
<svg version="1.1" id="Layer_1" xmlns="http://www.w3.org/2000/svg" xmlns:xlink="http://www.w3.org/1999/xlink" x="0px" y="0px"
	 viewBox="0 0 75 75" style="enable-background:new 0 0 75 75;" xml:space="preserve">
<style type="text/css">
	.st0{fill:#D4D4D4;}
	.st1{fill:#FFFFFF;}
</style>
<g transform="translate(-388 -4844)">
	<g transform="translate(-4543 6885)">
		<circle class="st0" cx="4968.5" cy="-2003.5" r="37.5"/>
	</g>
	<path class="st1" d="M422.8,4902.4c1,0.6,3.5,0.6,4,0.4s0.7-0.2,0.1-2.1s-1.6-4.5,0.7-6.2c2.3-1.7,3.6-2.5,3.6-2.5s0.2-0.1,0.5,0.3
		c0.5,0.7,0.8,1.4,1.1,2.1c0.1,0.5,0.1,0.9,0.2,1.4c0,0.7,0.9,0.6,0.9,0.6s0.9-0.2,0.4-1.5s-0.8-2.3-0.9-2.5c-0.1-0.2-0.3-0.6-0.5-1
		s-0.4-0.3,0.7-0.8s1.1-0.9,1.1-0.9s0.3-0.3,1.2,0.9c1.1,1.2,2.6,1.9,4.2,2c1.7,0.2,3,0.2,3.5-0.7c0.4-0.6,0.3-1.4-0.3-1.9
		c-0.4-0.2-1,0.2-1,0.2s-0.2,0.1,0.2,0.7c0.5,0.7-1,0.8-1,0.8s-3.4-0.2-4-1s-0.9-1.2-0.8-1.6s3.8-2.3,3.8-2.3s1.9-0.6,2.5,0.5
		s1.2,3.1,2.5,4.1c0.8,0.6,1.8,0.5,2.5-0.2c0,0,0-0.9-0.8-0.6c-0.7,0.2-1.4,0.1-2-0.4c-0.4-0.6-0.7-1.3-0.9-1.9c0,0-0.1-1.4-0.5-1.7
		s-0.8-0.8,0-0.9c0.8,0,2.1,0,2.1,0c0.5,0.2,0.9,0.5,1.2,0.9c0.5,0.6,2.7,1.9,4.2,1.1c1.5-0.8,0.3-1.4,0-1.3
		c-0.6,0.3-1.2,0.5-1.8,0.5c-0.7-0.2-1.3-0.5-1.9-0.9c0,0-0.2-0.4,0.5-0.7s0.5-1.2,0.3-1.5c-0.6-0.5-1.5-0.6-2.2-0.2
		c-1,0.5,0-1.3,0-1.3s0.8-1.1,3.5-1.8s1.1-1.6,1.1-1.6s-0.5-0.7-2.7,0.7c-1.3,0.7-2.3,1.8-3.2,3c0,0-0.4,1.3-0.4,1.4
		c0,0.1-4.2,1.3-4.2,1.3s-1.1,0.4,0-0.9c0.8-0.8,1.6-1.6,2.5-2.3c0,0,0.8-0.8,0.9-1.3s-0.1-0.9-0.5-0.9s-0.6,0.9-0.6,0.9l-0.7,1.3
		l-1.8,1.6c-0.6,0.7-1,1.5-1.4,2.3c-0.2,0.7-5.2,3.1-5.2,3.1s-0.7,0-0.4-1c0.4-0.8,0.8-1.6,1.4-2.3c0,0,0.8-1.1,0.6-1.8
		s-1-0.1-1.4,0.4c-0.4,0.5-0.2,0.8-0.2,1.6c0,0.7-0.6,0.7-1,1.7c-0.2,0.7-0.3,1.4-0.3,2.1c0,0.4-4.8,2.2-4.8,2.2s-0.6,0.5-0.3-1
		c0.2-2.3,0.3-4.6,0.1-6.9c-0.1-1.8,0.9-2.1,1.6-2.3s2,1.6,3.8,1.7c1.4,0,2.7-0.2,4-0.5c0.3-0.2,0.4-0.6,0.2-0.9c0,0,0,0,0-0.1
		c-0.4-0.7-1.1,0.3-1.6,0.4c-0.9,0.3-2,0.3-2.9,0c-0.6-0.2-1.1-0.5-1.7-0.8c0,0-0.3,0,1.1-0.7c1.5-0.7,1.5-0.3,2.7,0.3
		s3.6-0.6,3.6-0.6c0.2-0.3,0.2-0.7-0.1-0.9c0,0-0.1,0-0.1-0.1c-0.6-0.5-1,0.5-1,0.5c-0.6,0.5-1.3,0.6-2.1,0.4
		c-1.1-0.4-1.7-0.6-1.2-0.9c0.9-0.5,1.7-1,2.5-1.6c0.5-0.5,0.6,0.2,1.4,0.5c1.3,0.9,2.9,1.2,4.5,0.8c2.4-0.5,2.4-1.6,2.4-1.6
		s-0.1-1.1-1.1-0.6s-0.7,1.3-2.2,1.1c-1.3,0-2.6-0.4-3.8-1.1c-0.8-0.6,0.6-0.7,1.9-2.1s2.1,0.7,4.9-1.9c2.7-2.6,1.6-2.6,1.5-2.7
		s-1.1,0.8-1.9,1.7c-1,0.7-2,1.3-3.2,1.6c0,0-0.5,0.4,0-1.4c0.5-1.8-0.6-1.6-0.6-1.6s-0.5,0-0.6,0.7c-0.1,1.1-0.5,2.2-1.1,3.1
		c-0.6,0.6-1.2,1.4-1.2,0.3s0.2-3.9-0.2-4.4s-1.5-0.6-1.4,0c0.1,0.6,0.7,0.8,0.6,1.7s0,3.7,0.4,4c0.4,0.4-2.6,1.8-2.6,1.8
		s-0.4,0.5-1.5-1.2c-0.9-1.3-1.5-2.8-1.5-4.4c0.2-0.9-0.8-0.9-0.8-0.9s-1,0.1-0.6,1.4c0.6,2,1.6,3.9,3,5.4c1.4,1.4-4.6,2.6-4.6,2.6
		s-0.7,0.2,0.2-1.9c0.6-1.9,0.8-3.8,0.8-5.8c0,0,0-1,0-2c0-1-0.4-0.5,2.3-0.7s5.9-2.9,5.9-2.9c0.5-0.5,0.9-1,1.2-1.6
		c0.4-0.8-0.1-1.4-0.5-1.2s-1.7,2.3-3.1,3c-1.4,0.7-5.2,2.5-5.4,1.6c-0.1-0.9-0.4-2.9-0.4-2.9c0.7-0.1,1.4-0.2,2.1-0.3
		c2.6-0.4,6-2.7,6.7-3.9c0.4-0.5,0.3-1.2-0.2-1.6c0,0-0.1,0-0.1-0.1c0,0-0.6-0.2-1.2,0.8c-1.5,1.9-3.7,3.2-6.1,3.6
		c-2.6,0.2-1.2,0.1-1.9-2.1s-1-2.1-1-2.1c0.7,0,1.4-0.1,2.1-0.5c0.9-0.5,1.7-1.2,2.3-2c0,0,0.4-0.7-0.2-1s-1.5,1-1.5,1
		c-0.7,0.6-1.5,1-2.4,1.2c-0.6,0.1-1.1-0.1-1.6-0.4l-1.2-1.3c0,0-1-0.3-1.4,0.4c-0.3,0.7,0.7,1.9,0.7,1.9l1.3,1.4c0,0,0.4,0.3,0,0.7
		c-0.5,0.7-1.2,1.3-1.9,1.7c-0.6,0.1-1.2,0.1-1.8,0c0,0-0.6,0.7-0.3,1c1.1,0.6,2.6,0.5,3.5-0.4c1.4-1.3,1.2-1.1,1.2-1.1
		s0.3-0.3,0.6,0.5s0.7,3,0.7,3s0.2,0.2-1.5-0.2c-1.2-0.2-2.5-0.2-3.7-0.1c0,0-1,0.2-1.1,0.6c-0.1,0.4-0.1,1.2,1.3,0.6
		c1.5-0.5,3.2-0.5,4.7,0.1c0.6,0.4,0.9,1.1,1,1.8c0.2,0.6,0.2,1.2,0,1.8c-0.3,0.8-1.2,1.4-3.1,1.2s-1.6-1.2-2.2-0.9
		c-0.6,0.3-0.7,0.3-0.4,0.9s1.9,1,2.9,0.9c0.8,0,1.7-0.2,2.5-0.4c0.5-0.2-0.1,6.3-1.4,6.6c-1.4,0.3-3-1.2-5-2.8s-0.6-2.9-0.3-3.8
		s1.1-2.9,1.1-2.9c0.2-0.4,0-0.9-0.4-1.1c0,0,0,0,0,0c-0.8-0.3-0.9,1.8-0.9,1.8s-1,2.7-2.7,3.4s-2.1-0.3-3.1-1.4s1.7-1.5,3-3.4
		c1.2-1.8,2.1-1.3,2.1-1.3s0.9-0.3,0.5-0.8c-0.5-0.5-1.3-0.6-1.8-0.2c-0.5,0.3-1.8,2.3-3.3,3.2s-1.7,0.7-1.9,0.4
		c-0.2-0.4-0.3-0.8-0.2-1.2c0,0-0.1,0,1.4-0.8s2.7-2.2,2.8-3.2s-0.7-1.1-1.1-0.7s-0.9,2.3-2.2,2.7c-1.2,0.4-1.2,0.2-1.2,0.2l1.2-2.9
		c0,0,0.4-1-0.3-1.3c-0.7-0.3-1.8,1.7-1.8,1.7c-0.5,1.1-0.7,2.4-0.4,3.6c0.5,1.7,0.4,1.3,0.4,1.3s-3-0.9-3.5-1.9s-1.2-1.5-1.5-1.3
		s0.2,2.3,2.1,3.2c1.1,0.5,2.2,0.9,3.3,1.2c0.6,0.2,1.1,0.7,1.4,1.3c-0.5,0.6-1,1.3-1.6,1.8c-0.7,0.6-1.2,1-2,0.9
		c-0.8-0.1-0.9,0.8,0,1s3.7-2.1,4.1-2.5s9.3,6.4,9.3,6.4c-0.9,1.1-2,1.9-3.3,2.4c-1.7,0.3-2.5,0.6-2.5,1.1c0.1,0.5,2.4,0.6,4.3-0.5
		c1.9-1.1,2.2-2.2,2.9-2.4c0.6-0.2,1.3,2,1.4,3.3s-0.1,5.8-0.8,6.2s-2.2-2.4-5.2-3.5s-2.6-1-3.1-1.5c-0.5-0.6-0.7-1.5-0.3-2.3
		c0.3-0.8,0.3-3.7-0.5-4.8s-1.3-0.5-1.5-0.2c-0.2,0.3,0.4,0.3,0.8,0.6c0.5,0.8,0.8,1.8,0.7,2.8c-0.1,1.3-0.5,3.2-0.9,3.3
		c-1.5-0.1-2.9-0.3-4.4-0.7c-0.3-0.1-0.5,0,0.2-1.3c0.5-1.1,0.8-2.3,0.8-3.5v-1.9c0,0-0.3-0.5-0.8-0.3s-0.5,0.5-0.5,1.1
		c0,1,0,2-0.3,3c-0.3,0.8-0.7,1.6-1.1,2.3l-3.4-0.9c0.4-1.7,0.7-3.4,0.7-5.1c-0.2-1.9-0.3-4.7-1.7-5.6c-1.4-0.9-1.3,1-1.3,1
		c0.7,0.8,1.2,1.8,1.6,2.8c0.1,0.9,0,5.8-0.6,6.1c-0.5,0.3-2.5-1.2-3.1-2.5c-0.2-0.6-0.9-0.9-1.4-0.6c-0.1,0-0.2,0.1-0.3,0.2
		c0,0-0.8,0.8,0.7,2.4c1.4,1.2,3,2.2,4.7,2.9c-0.6,0.8-1.4,1.5-2.4,2c-1,0.4-3.1,1.3-2.2,1.9c1,0.6,4-1.2,4-1.2s2-2,2.2-2.1
		c1.8,0.3,3.5,0.6,5.2,1.1c-0.3,1-1.1,1.8-2.1,2.1c-1.7,0.5-3.3,0.6-3.3,1.3c0,0.7,2.7,0.2,2.7,0.2c1-0.2,1.9-0.7,2.8-1.3
		c0.6-0.6,1.2-1.2,1.8-1.9c0.2-0.4,5.5,1.5,5.5,1.5s4.8,2.7,5.1,4.4c0.2,2.3-0.1,4.6-0.9,6.8
		C422.2,4901.1,421.9,4901.8,422.8,4902.4z"/>
</g>
</svg>
