<svg xmlns="http://www.w3.org/2000/svg" width="75" height="75" viewBox="0 0 75 75"><defs><style>.a{fill:#F2F2F2;}.b{fill:#fff;}</style></defs><g transform="translate(-389 -4617)"><circle class="a" cx="37.5" cy="37.5" r="37.5" transform="translate(389 4617)"/><g transform="translate(400.837 4629.383)"><path class="b" d="M33.974,28.96c1.785,3.56,5.852,10.194,11.85,11.528,2.5.552,4.244.857,5.468,1.012A3.211,3.211,0,0,1,54.1,44.684v8.684h7.36V44.186A4.466,4.466,0,0,1,63.8,40.267,27.031,27.031,0,0,0,67.1,38.158a2.086,2.086,0,0,1,2.367-.079,17.262,17.262,0,0,0,4.165,1.811A2.392,2.392,0,0,0,75.1,35.345a16.46,16.46,0,0,1-1.766-.731,1.725,1.725,0,0,1-.772-2.392,13.453,13.453,0,0,0,.864-1.854,79.84,79.84,0,0,0,2.521-8.087c.359-1.371.69-2.742,1.012-4.122.311-1.339.9-2.815.433-4.182a2.523,2.523,0,0,0-1.621-1.541l-.026-.009a2.3,2.3,0,0,0-2.714,1.84c-.156.846-.35,1.9-.589,3.036a1.431,1.431,0,0,1-2.153.929,10.289,10.289,0,0,1-3.229-3.413,2.576,2.576,0,0,0-3.147-1.067,2.548,2.548,0,0,0-1.61,2.374,2.574,2.574,0,0,0,.313,1.223,12.616,12.616,0,0,0,6.228,5.906,2.324,2.324,0,0,1,1.306,2.912,26.468,26.468,0,0,1-1.324,3.281,12.527,12.527,0,0,1-4.251,4.471,4.031,4.031,0,0,1-2.981.911,4.457,4.457,0,0,1-2.677-2.153c-.782-1.205-1.638-2.374-2.365-3.6A15.447,15.447,0,0,1,54.1,21.167V2.455A2.4,2.4,0,0,0,51.971.007a2.3,2.3,0,0,0-2.466,2.3V4.081A1.676,1.676,0,0,1,47.65,5.756,8.753,8.753,0,0,1,42.834,3.7a2.576,2.576,0,1,0-3.257,3.993,14.4,14.4,0,0,0,7.8,2.484A2.282,2.282,0,0,1,49.5,12.445v8.722a21.3,21.3,0,0,0,3.156,10.36,2.953,2.953,0,0,1-2.622,4.425c-2.2.008-4.467-1.493-5.668-2.429a1.071,1.071,0,0,1-.159-1.545c.889-1.034,2.312-2.792,2.484-3.626a2.124,2.124,0,0,0-1.141-2.337v-.009a2.161,2.161,0,0,0-2.981,1.205c-.124.339-.313.828-.515,1.329a1.069,1.069,0,0,1-1.9.16c-.541-.881-1.082-1.8-1.343-2.272a2.7,2.7,0,0,0-3.754-1.012L35,25.455A2.688,2.688,0,0,0,33.974,28.96Zm0,0" transform="translate(-30.156 0)"/><path class="b" d="M314.516,2.818a2.76,2.76,0,1,1-2.76-2.76A2.76,2.76,0,0,1,314.516,2.818Zm0,0" transform="translate(-276.767 -0.052)"/><path class="b" d="M5.548,64.611a2.76,2.76,0,1,1-2.76-2.76A2.76,2.76,0,0,1,5.548,64.611Zm0,0" transform="translate(0 -55.405)"/><path class="b" d="M392.122,54.864a1.84,1.84,0,1,1-1.84-1.84A1.84,1.84,0,0,1,392.122,54.864Zm0,0" transform="translate(-347.932 -47.497)"/><path class="b" d="M65.5,151.965a1.84,1.84,0,1,1-1.84-1.84A1.84,1.84,0,0,1,65.5,151.965Zm0,0" transform="translate(-55.353 -134.478)"/><g transform="translate(11.979 10.13)"><path class="b" d="M354.077,99.028a.92.92,0,0,0,.653-1.573.95.95,0,0,0-.828-.248.555.555,0,0,0-.175.055.516.516,0,0,0-.156.083.9.9,0,0,0-.138.11.919.919,0,0,0,0,1.306.952.952,0,0,0,.138.11.516.516,0,0,0,.156.083.555.555,0,0,0,.175.055A1.149,1.149,0,0,0,354.077,99.028Zm0,0" transform="translate(-328.307 -97.19)"/><path class="b" d="M115.619,204.934a.92.92,0,1,0,.009-1.84h-.009a.92.92,0,1,0,0,1.84Zm0,0" transform="translate(-114.699 -192.056)"/></g></g></g></svg>