<svg xmlns="http://www.w3.org/2000/svg" xmlns:xlink="http://www.w3.org/1999/xlink" width="36.62" height="34.624" viewBox="0 0 36.62 34.624"><defs><style>.a,.b{fill:none;}.a{clip-rule:evenodd;}.c{clip-path:url(#a);}.d{clip-path:url(#b);}.e{clip-path:url(#c);}.f{clip-path:url(#d);}.g{clip-path:url(#e);}.h{fill:#d71f06;}.i{clip-path:url(#f);}.j{clip-path:url(#g);}.k{fill:#fdfdfd;}.l{clip-path:url(#h);}.m{clip-path:url(#j);}.n{clip-path:url(#k);}.o{clip-path:url(#l);}</style><clipPath id="a"><path class="a" d="M0-46H36.62v34.624H0Z" transform="translate(0 46)"/></clipPath><clipPath id="b"><path class="b" d="M-743,1651.3H403.365V-676H-743Z" transform="translate(743 676)"/></clipPath><clipPath id="c"><rect class="b" width="37.416" height="35.376"/></clipPath><clipPath id="d"><path class="a" d="M18.31-46C8.2-46,0-38.248,0-28.687S8.2-11.376,18.31-11.376s18.31-7.749,18.31-17.311V-46Z" transform="translate(0 46)"/></clipPath><clipPath id="e"><path class="b" d="M0-11.376H36.62V-46H0Z" transform="translate(0 46)"/></clipPath><clipPath id="f"><path class="a" d="M18.312-27.9a1.908,1.908,0,0,0-1.943-1.509c-1.754,0-2.415,1.449-2.415,2.958,0,1.438.661,2.887,2.415,2.887a1.975,1.975,0,0,0,2.018-1.932H20.28a3.71,3.71,0,0,1-3.91,3.526A4.216,4.216,0,0,1,12-26.448,4.237,4.237,0,0,1,16.369-31,3.579,3.579,0,0,1,20.2-27.9Z" transform="translate(-12 31)"/></clipPath><clipPath id="g"><path class="b" d="M-743,1651.3H340.867V-676H-743Z" transform="translate(743 676)"/></clipPath><clipPath id="h"><path class="a" d="M25.2-30.863h7.922v8.721H25.2Z" transform="translate(-25.198 30.863)"/></clipPath><clipPath id="j"><rect class="b" width="8.28" height="9.032"/></clipPath><clipPath id="k"><path class="a" d="M27.222-26.917h2.215c.9,0,1.391-.367,1.391-1.246,0-.843-.489-1.208-1.391-1.208H27.222ZM25.2-30.863h4.959a2.47,2.47,0,0,1,2.694,2.407,2.142,2.142,0,0,1-1.457,2.186v.024c.994.245,1.276,1.161,1.341,2.04a4.552,4.552,0,0,0,.386,2.063H31.1a9.16,9.16,0,0,1-.321-2.088,1.316,1.316,0,0,0-1.535-1.32H27.222v3.408H25.2Z" transform="translate(-25.198 30.863)"/></clipPath><clipPath id="l"><path class="b" d="M25-21.968h8.28V-31H25Z" transform="translate(-25 31)"/></clipPath></defs><g transform="translate(0 46)"><g class="c" transform="translate(0 -46)"><g class="d" transform="translate(-591.493 -474.192)"><g class="e" transform="translate(591.493 474.192)"><g class="f"><g class="g"><path class="h" d="M-5-51H39.581V-8.85H-5Z" transform="translate(1.02 47.237)"/></g></g></g></g></g><g class="i" transform="translate(9.717 -34.71)"><g class="j" transform="translate(-568.278 -485.482)"><path class="k" d="M7-36H22.806v16.559H7Z" transform="translate(557.514 517.719)"/></g></g><g class="l" transform="translate(20.385 -34.606)"><g class="j" transform="translate(-578.212 -485.585)"><g class="m" transform="translate(578.063 485.482)"><g class="n" transform="translate(0.149 0.103)"><g class="o" transform="translate(-0.149 -0.103)"><path class="k" d="M20.2-35.863H35.648v16.248H20.2Z" transform="translate(-23.813 32.203)"/></g></g></g></g></g></g></svg>