<svg xmlns="http://www.w3.org/2000/svg" width="17.063" height="17.063" viewBox="0 0 17.063 17.063"><defs><style>.a{fill:#383838;}</style></defs><g transform="translate(-7.334 -7.335)"><g transform="translate(7.334 7.335)"><path class="a" d="M16.749.312a1.057,1.057,0,0,0-1.5,0L8.531,7.031c-5.579,5.6.364-.313-1.5,1.5L.312,15.25a1.056,1.056,0,0,0,0,1.5,1.067,1.067,0,0,0,.746.314,1.034,1.034,0,0,0,.746-.314L8.523,10.03c5.235-5.048-3.687,4.068,1.507-1.5l6.719-6.719A1.057,1.057,0,0,0,16.749.312Z" transform="translate(17.063 0.001) rotate(90)"/><path class="a" d="M16.749.312a1.057,1.057,0,0,0-1.5,0L8.531,7.031c-5.579,5.6.364-.313-1.5,1.5L.312,15.25a1.056,1.056,0,0,0,0,1.5,1.067,1.067,0,0,0,.746.314,1.034,1.034,0,0,0,.746-.314L8.523,10.03c5.235-5.048-3.687,4.068,1.507-1.5l6.719-6.719A1.057,1.057,0,0,0,16.749.312Z" transform="translate(17.062 17.063) rotate(180)"/></g></g></svg>