<svg xmlns="http://www.w3.org/2000/svg" xmlns:xlink="http://www.w3.org/1999/xlink" width="36.62" height="36.62" viewBox="0 0 36.62 36.62"><defs><style>.a,.b{fill:none;}.a{clip-rule:evenodd;}.c{clip-path:url(#a);}.d{clip-path:url(#b);}.e{clip-path:url(#c);}.f{clip-path:url(#d);}.g{clip-path:url(#e);}.h{fill:#878787;}.i{clip-path:url(#f);}.j{clip-path:url(#g);}.k{fill:#fdfdfd;}.l{clip-path:url(#h);}.m{clip-path:url(#j);}.n{clip-path:url(#k);}.o{clip-path:url(#l);}</style><clipPath id="a"><path class="a" d="M0-46H36.62V-9.38H0Z" transform="translate(0 46)"/></clipPath><clipPath id="b"><path class="b" d="M-743,1433.5H403.365V-1028H-743Z" transform="translate(743 1028)"/></clipPath><clipPath id="c"><rect class="b" width="37.416" height="37.416"/></clipPath><clipPath id="d"><path class="a" d="M18.31-46A18.312,18.312,0,0,0,0-27.689,18.309,18.309,0,0,0,18.31-9.38,18.308,18.308,0,0,0,36.62-27.689V-46Z" transform="translate(0 46)"/></clipPath><clipPath id="e"><path class="b" d="M0-9.38H36.62V-46H0Z" transform="translate(0 46)"/></clipPath><clipPath id="f"><path class="a" d="M15.139-20.575h1.908c1.241,0,2.426-.811,2.426-3.1,0-2.085-.68-3.417-2.807-3.417H15.139ZM13-29h4.2c2.521,0,4.416,1.679,4.416,5.109,0,3-1.445,5.227-4.416,5.227H13Z" transform="translate(-13 29)"/></clipPath><clipPath id="g"><path class="b" d="M-743,1635.161H497.282V-1028H-743Z" transform="translate(743 1028)"/></clipPath><clipPath id="h"><path class="a" d="M24.66-28.595h8.55v9.986H24.66Z" transform="translate(-24.66 28.595)"/></clipPath><clipPath id="j"><rect class="b" width="9.474" height="10.336" transform="translate(0 0)"/></clipPath><clipPath id="k"><path class="a" d="M26.784-20.455h1.894c1.232,0,2.408-.784,2.408-2.994,0-2.014-.675-3.3-2.787-3.3H26.784Zm-2.124-8.14h4.166c2.5,0,4.384,1.622,4.384,4.936,0,2.9-1.435,5.05-4.384,5.05H24.66Z" transform="translate(-24.66 28.595)"/></clipPath><clipPath id="l"><path class="b" d="M24-18.664h9.474V-29H24Z" transform="translate(-24 29)"/></clipPath></defs><g transform="translate(0 46)"><g class="c" transform="translate(0 -46)"><g class="d" transform="translate(-591.493 -781.757)"><g class="e" transform="translate(591.493 781.757)"><g class="f"><g class="g"><path class="h" d="M-5-51H39.581V-6.419H-5Z" transform="translate(1.02 47.02)"/></g></g></g></g></g><g class="i" transform="translate(10.114 -32.858)"><g class="j" transform="translate(-651.148 -860.446)"><path class="k" d="M8-34H25.226v18.949H8Z" transform="translate(638.841 890.139)"/></g></g><g class="l" transform="translate(20.189 -32.527)"><g class="j" transform="translate(-661.191 -860.795)"><g class="m" transform="translate(660.622 860.446)"><g class="n" transform="translate(0.569 0.349)"><g class="o" transform="translate(-0.569 -0.349)"><path class="k" d="M19.66-33.595H36.823V-15H19.66Z" transform="translate(-23.398 29.637)"/></g></g></g></g></g></g></svg>