<svg xmlns="http://www.w3.org/2000/svg" width="16.602" height="16.602" viewBox="0 0 16.602 16.602"><defs><style>.a{fill:#fff;}</style></defs><path class="a" d="M15.911,9.043a.668.668,0,0,0-.691.646V12.8H1.382V9.689a.668.668,0,0,0-.691-.646A.668.668,0,0,0,0,9.689v3.761a.668.668,0,0,0,.691.646h15.22a.668.668,0,0,0,.691-.646V9.689A.668.668,0,0,0,15.911,9.043Z" transform="translate(0 2.506)"/><path class="a" d="M7.008,12.048a.7.7,0,0,0,1.019,0l4-4.326a.7.7,0,0,0-.037-.991A.689.689,0,0,0,11,6.77L8.214,9.789V.7a.7.7,0,1,0-1.39,0V9.793L4.033,6.773a.7.7,0,0,0-.985-.038.706.706,0,0,0-.037.991Z" transform="translate(0.783)"/></svg>