<svg xmlns="http://www.w3.org/2000/svg" xmlns:xlink="http://www.w3.org/1999/xlink" width="36.624" height="36.624" viewBox="0 0 36.624 36.624"><defs><style>.a,.b{fill:none;}.a{clip-rule:evenodd;}.c{clip-path:url(#a);}.d{clip-path:url(#b);}.e{clip-path:url(#c);}.f{clip-path:url(#d);}.g{clip-path:url(#e);}.h{fill:#d72006;}.i{clip-path:url(#f);}.j{fill:#fdfdfd;}.k{clip-path:url(#h);}</style><clipPath id="a"><path class="a" d="M0-46H36.624V-9.376H0Z" transform="translate(0 46)"/></clipPath><clipPath id="b"><path class="b" d="M-743,1727.739H403.476V-734H-743Z" transform="translate(743 734)"/></clipPath><clipPath id="c"><rect class="b" width="37.42" height="37.42"/></clipPath><clipPath id="d"><path class="a" d="M18.312-46A18.314,18.314,0,0,0,0-27.687,18.311,18.311,0,0,0,18.312-9.376,18.31,18.31,0,0,0,36.624-27.687V-46Z" transform="translate(0 46)"/></clipPath><clipPath id="e"><path class="b" d="M0-9.376H36.624V-46H0Z" transform="translate(0 46)"/></clipPath><clipPath id="f"><path class="a" d="M13-30v9.554h7.165v-1.768h-5.09v-2.34H19.65v-1.634H15.076v-2.047H20.06V-30Z" transform="translate(-13 30)"/></clipPath><clipPath id="h"><path class="a" d="M30.019-30v6.409h-.026L26.058-30H24v9.554h1.94v-6.4h.028l3.92,6.4h2.074V-30Z" transform="translate(-24 30)"/></clipPath></defs><g transform="translate(0 46)"><g class="c" transform="translate(0 -46)"><g class="d" transform="translate(-591.55 -547.761)"><g class="e" transform="translate(591.55 547.761)"><g class="f"><g class="g"><path class="h" d="M-5-51H39.585V-6.415H-5Z" transform="translate(1.019 47.019)"/></g></g></g></g></g><g class="i" transform="translate(10.35 -33.261)"><g class="d" transform="translate(-601.9 -560.499)"><path class="j" d="M8-35H23.127v17.516H8Z" transform="translate(589.919 591.519)"/></g></g><g class="k" transform="translate(19.108 -33.261)"><g class="d" transform="translate(-610.658 -560.499)"><path class="j" d="M19-35H34.923v17.516H19Z" transform="translate(587.677 591.519)"/></g></g></g></svg>