<?xml version="1.0" encoding="utf-8"?>
<!-- Generator: Adobe Illustrator 22.1.0, SVG Export Plug-In . SVG Version: 6.00 Build 0)  -->
<svg version="1.1" id="Layer_1" xmlns="http://www.w3.org/2000/svg" xmlns:xlink="http://www.w3.org/1999/xlink" x="0px" y="0px"
	 viewBox="0 0 27.2 64.5" style="enable-background:new 0 0 27.2 64.5;" xml:space="preserve">
<style type="text/css">
	.st0{fill:#FFFFFF;}
</style>
<g id="Layer_2_2_">
	<g>
		<g>
			<path class="st0" d="M13.6,51.6C6.1,51.6,0,45.5,0,38V26.1c0-7.5,6.1-13.6,13.6-13.6s13.6,6.1,13.6,13.6V38
				C27.2,45.5,21.1,51.6,13.6,51.6z M13.6,15.7c-5.7,0-10.4,4.7-10.4,10.4V38c0,5.7,4.7,10.4,10.4,10.4S24,43.7,24,38V26.1
				C24,20.4,19.3,15.7,13.6,15.7z"/>
		</g>
		<g>
			<path class="st0" d="M13.7,28.3c-0.9,0-1.6-0.7-1.6-1.6v-4.6c0-0.9,0.7-1.6,1.6-1.6s1.6,0.7,1.6,1.6v4.6
				C15.3,27.6,14.5,28.3,13.7,28.3z"/>
		</g>
		<g>
			<path class="st0" d="M9.5,8.2c-0.4,0-0.7-0.1-1-0.4C7.7,7.2,7.6,6.2,8.2,5.5l4.2-5c0.6-0.7,1.9-0.7,2.5,0l4.2,5
				c0.6,0.7,0.5,1.7-0.2,2.3s-1.7,0.5-2.3-0.2l-3-3.5l-3,3.5C10.4,8,9.9,8.2,9.5,8.2z"/>
		</g>
		<g>
			<path class="st0" d="M18,56.3c0.4,0,0.7,0.1,1,0.4c0.8,0.6,0.9,1.6,0.3,2.3l-4.2,5c-0.6,0.7-1.9,0.7-2.5,0l-4.2-5
				c-0.6-0.7-0.5-1.7,0.2-2.3c0.7-0.6,1.7-0.5,2.3,0.2l3,3.5l3-3.5C17.1,56.5,17.6,56.3,18,56.3z"/>
		</g>
	</g>
</g>
</svg>
