<svg xmlns="http://www.w3.org/2000/svg" xmlns:xlink="http://www.w3.org/1999/xlink" width="36.62" height="36.62" viewBox="0 0 36.62 36.62"><defs><style>.a,.b{fill:none;}.a{clip-rule:evenodd;}.c{clip-path:url(#a);}.d{clip-path:url(#b);}.e{clip-path:url(#c);}.f{clip-path:url(#d);}.g{clip-path:url(#e);}.h{fill:#d72006;}.i{clip-path:url(#f);}.j{clip-path:url(#g);}.k{fill:#fdfdfd;}.l{clip-path:url(#h);}.m{clip-path:url(#j);}.n{clip-path:url(#k);}.o{clip-path:url(#l);}</style><clipPath id="a"><path class="a" d="M0-46H36.62V-9.38H0Z" transform="translate(0 46)"/></clipPath><clipPath id="b"><path class="b" d="M-743,1553.5H403.365V-908H-743Z" transform="translate(743 908)"/></clipPath><clipPath id="c"><rect class="b" width="37.416" height="37.416"/></clipPath><clipPath id="d"><path class="a" d="M18.31-46A18.312,18.312,0,0,0,0-27.689,18.309,18.309,0,0,0,18.31-9.38,18.308,18.308,0,0,0,36.62-27.689V-46Z" transform="translate(0 46)"/></clipPath><clipPath id="e"><path class="b" d="M0-9.38H36.62V-46H0Z" transform="translate(0 46)"/></clipPath><clipPath id="f"><path class="a" d="M13-30v9.609h6.652v-1.778H15.068V-30Z" transform="translate(-13 30)"/></clipPath><clipPath id="g"><path class="b" d="M-743,1377.391H321.348V-908H-743Z" transform="translate(743 908)"/></clipPath><clipPath id="h"><path class="a" d="M22.463-30.027h9.128v10.319H22.463Z" transform="translate(-22.463 30.027)"/></clipPath><clipPath id="j"><rect class="b" width="9.609" height="11.087" transform="translate(0 0)"/></clipPath><clipPath id="k"><path class="a" d="M29.422-26.483a2.119,2.119,0,0,0-2.141-1.725c-1.935,0-2.663,1.656-2.663,3.38,0,1.643.728,3.3,2.663,3.3a2.214,2.214,0,0,0,2.225-2.208h2.085a4.147,4.147,0,0,1-4.31,4.029c-3.034,0-4.818-2.277-4.818-5.119,0-2.925,1.784-5.2,4.818-5.2a3.984,3.984,0,0,1,4.229,3.544Z" transform="translate(-22.463 30.028)"/></clipPath><clipPath id="l"><path class="b" d="M22-19.913h9.609V-31H22Z" transform="translate(-22 31)"/></clipPath></defs><g transform="translate(0 46)"><g class="c" transform="translate(0 -46)"><g class="d" transform="translate(-591.493 -686.227)"><g class="e" transform="translate(591.493 686.227)"><g class="f"><g class="g"><path class="h" d="M-5-51H39.581V-6.419H-5Z" transform="translate(1.02 47.02)"/></g></g></g></g></g><g class="i" transform="translate(10.529 -32.904)"><g class="j" transform="translate(-558.783 -648.957)"><path class="k" d="M8-35H22.043v17H8Z" transform="translate(547.087 680.261)"/></g></g><g class="l" transform="translate(18.352 -32.888)"><g class="j" transform="translate(-565.777 -648.936)"><g class="m" transform="translate(565.435 648.217)"><g class="n" transform="translate(0.342 0.719)"><g class="o" transform="translate(-0.342 -0.719)"><path class="k" d="M17.463-35.028h16.52v17.71H17.463Z" transform="translate(-20.816 32.051)"/></g></g></g></g></g></g></svg>