<svg xmlns="http://www.w3.org/2000/svg" width="75" height="75" viewBox="0 0 75 75"><defs><style>.a{fill:#d6a520;}.b,.c,.d,.e{fill:none;}.b,.d,.e{stroke:#fff;}.b,.d{stroke-linecap:round;}.b{stroke-width:1.5px;}.e{stroke-width:0.5px;}.f{fill:#fff;}</style></defs><g transform="translate(-969 -4618)"><circle class="a" cx="37.5" cy="37.5" r="37.5" transform="translate(969 4618)"/><g transform="translate(-3568.621 6633)"><path class="b" d="M4653.62-2366.99s-1.549-9.876,9.152-14.31,10.366-4.021,10.366-4.021,3.2,1.486,9.729,4.021,9.5,6.643,9.314,14.31" transform="translate(-98 407.99)"/><path class="c" d="M4653.584-2373.522a9.271,9.271,0,0,1,6.091-9.185c6.756-2.8,6.034-3.446,6.034-3.446a19.2,19.2,0,0,0,6.026,3.446c4.124,1.6,6.311,4.344,6.193,9.185" transform="translate(-90.817 413.847)"/><path class="d" d="M4730.688-2410.885v-34.938" transform="translate(-155.798 451.885)"/><path class="e" d="M4726.681-2421.766c-2.066.551-2.2,2.029-2.2,2.029s-1.066-2.025-2.071-2.029" transform="translate(-149.592 433.848)"/><path class="e" d="M4726.681-2421.766c-2.066.551-2.2,2.029-2.2,2.029s-1.066-2.025-2.071-2.029" transform="translate(-149.592 429.845)"/><path class="f" d="M4763.6-2454.329c-.135.095-.131-3.347,1.561-4.313a12.271,12.271,0,0,1,4.479-1.116s-.129,2.719-1.371,4.125S4763.733-2454.422,4763.6-2454.329Z" transform="translate(-180.617 459.983)"/><path class="f" d="M.054,5.666c-.14.1-.134-3.494,1.63-4.5A12.827,12.827,0,0,1,6.358,0S6.224,2.838,4.927,4.306.194,5.568.054,5.666Z" transform="translate(4579.872 -1993.825) rotate(14)"/><path class="f" d="M.055,5.736c-.141.1-.136-3.537,1.65-4.558A12.985,12.985,0,0,1,6.436,0S6.3,2.873,4.988,4.359.2,5.637.055,5.736Z" transform="matrix(0.891, 0.454, -0.454, 0.891, 4580.138, -1988.287)"/><path class="f" d="M.041,4.255c-.1.074-.1-2.623,1.224-3.381A9.633,9.633,0,0,1,4.774,0,6.242,6.242,0,0,1,3.7,3.233C2.726,4.335.146,4.181.041,4.255Z" transform="matrix(0.809, 0.588, -0.588, 0.809, 4586.581, -1990.906)"/><path class="f" d="M.051,5.4C-.082,5.493-.077,2.07,1.6,1.109A12.222,12.222,0,0,1,6.058,0S5.93,2.7,4.695,4.1.184,5.305.051,5.4Z" transform="translate(4575.086 -1997.51) rotate(-34)"/><path class="f" d="M.048,0C-.077-.086-.072,3.13,1.508,4.033A11.487,11.487,0,0,0,5.693,5.076,7.443,7.443,0,0,0,4.412,1.22C3.251-.094.173.09.048,0Z" transform="translate(4575.15 -1998.606) rotate(-146)"/><path class="f" d="M4769.636-2454.285c.138.1.129-3.374-1.574-4.348a12.383,12.383,0,0,0-4.515-1.125s.131,2.741,1.383,4.159S4769.5-2454.379,4769.636-2454.285Z" transform="translate(-196.578 459.283)"/><path class="f" d="M.053,0c-.138-.1-.132,3.441,1.605,4.435a12.636,12.636,0,0,0,4.6,1.147s-.132-2.8-1.409-4.241S.191.1.053,0Z" transform="translate(4571.735 -1990.245) rotate(166)"/><path class="f" d="M.058,0C-.092-.1-.086,3.746,1.8,4.827A13.747,13.747,0,0,0,6.813,6.074S6.67,3.033,5.28,1.46.208.107.058,0Z" transform="matrix(-0.891, 0.454, -0.454, -0.891, 4573.504, -1984.656)"/><path class="f" d="M.034,0C-.054-.061-.051,2.206,1.063,2.843a8.1,8.1,0,0,0,2.95.735A5.247,5.247,0,0,0,3.11.86C2.291-.066.122.063.034,0Z" transform="matrix(-0.809, 0.588, -0.588, -0.809, 4564.945, -1989.292)"/><path class="f" d="M.034,0C-.054-.061-.051,2.206,1.063,2.843a8.1,8.1,0,0,0,2.95.735A5.247,5.247,0,0,0,3.11.86C2.291-.066.122.063.034,0Z" transform="matrix(-0.978, 0.208, -0.208, -0.978, 4566.63, -1996.33)"/></g></g></svg>