<?xml version="1.0" encoding="utf-8"?>
<!-- Generator: Adobe Illustrator 22.1.0, SVG Export Plug-In . SVG Version: 6.00 Build 0)  -->
<svg version="1.1" id="Layer_1" xmlns="http://www.w3.org/2000/svg" xmlns:xlink="http://www.w3.org/1999/xlink" x="0px" y="0px"
	 viewBox="0 0 75 75" style="enable-background:new 0 0 75 75;" xml:space="preserve">
<style type="text/css">
	.st0{fill:#D4D4D4;}
	.st1{fill:none;stroke:#FFFFFF;stroke-width:1.5;stroke-linecap:round;}
	.st2{fill:none;}
	.st3{fill:none;stroke:#FFFFFF;stroke-linecap:round;}
	.st4{fill:none;stroke:#FFFFFF;stroke-width:0.5;}
	.st5{fill:#FFFFFF;}
</style>
<g transform="translate(-969 -4618)">
	<circle class="st0" cx="1006.5" cy="4655.5" r="37.5"/>
	<g transform="translate(-3568.621 6633)">
		<path class="st1" d="M4555.6-1959c0,0-1.5-9.9,9.2-14.3s10.4-4,10.4-4s3.2,1.5,9.7,4s9.5,6.6,9.3,14.3"/>
		<path class="st2" d="M4562.8-1959.7c-0.2-4.1,2.3-7.8,6.1-9.2c6.8-2.8,6-3.4,6-3.4c1.8,1.5,3.8,2.7,6,3.4c4.1,1.6,6.3,4.3,6.2,9.2
			"/>
		<path class="st3" d="M4574.9-1959v-34.9"/>
		<path class="st4" d="M4577.1-1987.9c-2.1,0.6-2.2,2-2.2,2s-1.1-2-2.1-2"/>
		<path class="st4" d="M4577.1-1991.9c-2.1,0.6-2.2,2-2.2,2s-1.1-2-2.1-2"/>
		<path class="st5" d="M4583-1994.3c-0.1,0.1-0.1-3.3,1.6-4.3c1.4-0.7,2.9-1,4.5-1.1c0,0-0.1,2.7-1.4,4.1S4583.1-1994.4,4583-1994.3
			z"/>
		<path class="st5" d="M4578.6-1988.3c-0.2,0.1,0.7-3.4,2.7-4c1.6-0.3,3.2-0.3,4.8,0c0,0-0.8,2.7-2.4,3.8
			C4582-1987.3,4578.7-1988.4,4578.6-1988.3z"/>
		<path class="st5" d="M4577.6-1983.2c-0.2,0,1.5-3.2,3.5-3.3c1.6,0.1,3.3,0.4,4.8,1.1c0,0-1.4,2.5-3.3,3.2
			S4577.8-1983.2,4577.6-1983.2z"/>
		<path class="st5" d="M4584.1-1987.4c-0.1,0,1.5-2.2,3-2c1.2,0.2,2.3,0.7,3.4,1.4c-0.7,0.9-1.7,1.6-2.8,2
			C4586.2-1985.8,4584.2-1987.4,4584.1-1987.4z"/>
		<path class="st5" d="M4578.1-1993.1c-0.1,0.2-2-2.7-1.1-4.4c0.8-1.3,1.8-2.5,3.1-3.4c0,0,1.4,2.3,1.2,4.2
			C4581-1994.9,4578.2-1993.2,4578.1-1993.1z"/>
		<path class="st5" d="M4575.1-1998.6c0.1,0.1,1.8-2.5,1-4.2c-0.8-1.2-1.7-2.3-2.9-3.2c-0.7,1.2-1.1,2.5-1.1,3.9
			C4572.4-2000.3,4575.1-1998.8,4575.1-1998.6z"/>
		<path class="st5" d="M4573.1-1995c0.1,0.1,0.1-3.4-1.6-4.3c-1.4-0.7-3-1-4.5-1.1c0,0,0.1,2.7,1.4,4.2S4572.9-1995.1,4573.1-1995z"
			/>
		<path class="st5" d="M4571.7-1990.2c0.2,0.1-0.7-3.4-2.6-3.9c-1.6-0.3-3.2-0.3-4.7,0c0,0,0.8,2.7,2.4,3.8
			C4568.3-1989.3,4571.5-1990.3,4571.7-1990.2z"/>
		<path class="st5" d="M4573.5-1984.6c0.2,0-1.6-3.4-3.7-3.5c-1.7,0.1-3.4,0.5-5,1.2c0,0,1.5,2.6,3.5,3.4
			C4570.1-1982.8,4573.3-1984.7,4573.5-1984.6z"/>
		<path class="st5" d="M4564.9-1989.3c0.1,0-1.2-1.8-2.5-1.7c-1,0.2-2,0.6-2.8,1.1c0.6,0.8,1.4,1.3,2.3,1.7
			C4563.1-1987.9,4564.8-1989.3,4564.9-1989.3z"/>
		<path class="st5" d="M4566.6-1996.3c0.1,0-0.4-2.2-1.6-2.6c-1-0.2-2-0.3-3-0.1c0.2,0.9,0.7,1.8,1.4,2.5
			C4564.4-1995.8,4566.5-1996.4,4566.6-1996.3z"/>
	</g>
</g>
</svg>
