<svg xmlns="http://www.w3.org/2000/svg" xmlns:xlink="http://www.w3.org/1999/xlink" width="36.62" height="36.162" viewBox="0 0 36.62 36.162"><defs><style>.a,.b{fill:none;}.a{clip-rule:evenodd;}.c{clip-path:url(#a);}.d{clip-path:url(#b);}.e{clip-path:url(#c);}.f{clip-path:url(#d);}.g{clip-path:url(#e);}.h{fill:#d72006;}.i{clip-path:url(#f);}.j{clip-path:url(#g);}.k{fill:#fdfdfd;}.l{clip-path:url(#h);}</style><clipPath id="a"><path class="a" d="M0-46H36.62V-9.838H0Z" transform="translate(0 46)"/></clipPath><clipPath id="b"><path class="b" d="M-743,1580.7H403.365V-850H-743Z" transform="translate(743 850)"/></clipPath><clipPath id="c"><rect class="b" width="37.416" height="36.948"/></clipPath><clipPath id="d"><path class="a" d="M18.31-46A18.2,18.2,0,0,0,0-27.918,18.2,18.2,0,0,0,18.31-9.838a18.194,18.194,0,0,0,18.31-18.08V-46Z" transform="translate(0 46)"/></clipPath><clipPath id="e"><path class="b" d="M0-9.838H36.62V-46H0Z" transform="translate(0 46)"/></clipPath><clipPath id="f"><path class="a" d="M18.918-31v6.3h-.026L15.023-31H13v9.391h1.908V-27.9h.026l3.854,6.287h2.038V-31Z" transform="translate(-13 31)"/></clipPath><clipPath id="g"><path class="b" d="M-743,1569.695H383.9V-850H-743Z" transform="translate(743 850)"/></clipPath><clipPath id="h"><path class="a" d="M25-31v1.735h2.864v7.656h2.1v-7.656h2.861V-31Z" transform="translate(-25 31)"/></clipPath></defs><g transform="translate(0 46)"><g class="c" transform="translate(0 -46)"><g class="d" transform="translate(-591.493 -632.046)"><g class="e" transform="translate(591.493 632.046)"><g class="f"><g class="g"><path class="h" d="M-5-51H39.581V-6.977H-5Z" transform="translate(1.02 47.069)"/></g></g></g></g></g><g class="i" transform="translate(10.398 -34.189)"><g class="j" transform="translate(-591.62 -640.922)"><path class="k" d="M8-36H23.651v17.216H8Z" transform="translate(579.707 673.009)"/></g></g><g class="l" transform="translate(19.996 -34.189)"><g class="j" transform="translate(-601.011 -640.922)"><path class="k" d="M20-36H35.651v17.216H20Z" transform="translate(577.098 673.009)"/></g></g></g></svg>