<svg xmlns="http://www.w3.org/2000/svg" xmlns:xlink="http://www.w3.org/1999/xlink" width="74.951" height="73.969" viewBox="0 0 74.951 73.969"><defs><style>.a{fill:#0a2f3c;}.b{fill:#fff;}.c{filter:url(#a);}</style><filter id="a" x="0" y="0" width="74.951" height="73.969" filterUnits="userSpaceOnUse"><feOffset dy="3" input="SourceAlpha"/><feGaussianBlur stdDeviation="3" result="b"/><feFlood flood-opacity="0.161"/><feComposite operator="in" in2="b"/><feComposite in="SourceGraphic"/></filter></defs><g transform="matrix(-0.017, 1, -1, -0.017, 65.951, 6.978)"><g class="c" transform="matrix(-0.02, -1, 1, -0.02, -5.83, 66.06)"><rect class="a" width="55" height="56" rx="27.5" transform="matrix(-0.02, 1, -1, -0.02, 65.95, 6.98)"/></g><g transform="translate(16.74 17.658)"><g transform="translate(0 2.849)"><g transform="translate(0 11.79) rotate(-90)"><path class="b" d="M11.366,11.653,2.473,20.771a1.423,1.423,0,0,1-2.048,0,1.512,1.512,0,0,1,0-2.1L8.294,10.6.424,2.535a1.512,1.512,0,0,1,0-2.1,1.423,1.423,0,0,1,2.048,0l8.894,9.118a1.512,1.512,0,0,1,0,2.1Z"/></g></g></g></g></svg>