<?xml version="1.0" encoding="utf-8"?>
<!-- Generator: Adobe Illustrator 25.2.3, SVG Export Plug-In . SVG Version: 6.00 Build 0)  -->
<svg version="1.1" id="Layer_1" xmlns="http://www.w3.org/2000/svg" xmlns:xlink="http://www.w3.org/1999/xlink" x="0px" y="0px"
	 viewBox="0 0 56 55" style="enable-background:new 0 0 56 55;" xml:space="preserve">
<style type="text/css">
	.st0{fill:#0A2F3C;}
	.st1{fill:#FFFFFF;}
</style>
<g transform="matrix(-0.017, 1, -1, -0.017, 65.951, 6.978)">
	<g transform="matrix(-0.02, -1, 1, -0.02, -5.83, 66.06)">
		<path class="st0" d="M55.9,28.1L55.9,28.1c-0.3,15.2-12.9,27.3-28.1,26.9l-1,0c-15.2-0.3-27.3-12.9-27-28l0,0
			C0.2,11.8,12.8-0.2,28,0.1l1,0C44.2,0.4,56.2,12.9,55.9,28.1z"/>
	</g>
	<g transform="translate(16.74 17.658)">
		<g transform="translate(0 2.849)">
			<g transform="translate(0 11.79) rotate(-90)">
				<path class="st1" d="M1.8,5.5l-8.9,9.1c-0.5,0.6-1.4,0.6-2,0c0,0,0,0,0,0c-0.6-0.6-0.6-1.5,0-2.1l7.9-8.1l-7.9-8.1
					c-0.6-0.6-0.6-1.5,0-2.1c0.5-0.6,1.4-0.6,2,0c0,0,0,0,0,0l8.9,9.1C2.3,4,2.3,4.9,1.8,5.5z"/>
			</g>
		</g>
	</g>
</g>
</svg>
