<svg xmlns="http://www.w3.org/2000/svg" xmlns:xlink="http://www.w3.org/1999/xlink" width="36.62" height="36.62" viewBox="0 0 36.62 36.62"><defs><style>.a,.b{fill:none;}.a{clip-rule:evenodd;}.c{clip-path:url(#a);}.d{clip-path:url(#b);}.e{clip-path:url(#c);}.f{clip-path:url(#d);}.g{clip-path:url(#e);}.h{fill:#878787;}.i{clip-path:url(#f);}.j{clip-path:url(#g);}.k{fill:#fdfdfd;}.l{clip-path:url(#h);}</style><clipPath id="a"><path class="a" d="M0-46H36.62V-9.38H0Z" transform="translate(0 46)"/></clipPath><clipPath id="b"><path class="b" d="M-743,1494.5H403.365V-967H-743Z" transform="translate(743 967)"/></clipPath><clipPath id="c"><rect class="b" width="37.416" height="37.416"/></clipPath><clipPath id="d"><path class="a" d="M18.31-46A18.312,18.312,0,0,0,0-27.689,18.309,18.309,0,0,0,18.31-9.38,18.308,18.308,0,0,0,36.62-27.689V-46Z" transform="translate(0 46)"/></clipPath><clipPath id="e"><path class="b" d="M0-9.38H36.62V-46H0Z" transform="translate(0 46)"/></clipPath><clipPath id="f"><path class="a" d="M18.589-30v5.95h-.026L14.911-30H13v8.87h1.8v-5.938h.025l3.64,5.938h1.924V-30Z" transform="translate(-12 30)"/></clipPath><clipPath id="g"><path class="b" d="M-743,1318.391H321.348V-967H-743Z" transform="translate(743 967)"/></clipPath><clipPath id="h"><path class="a" d="M26-30v8.87h6.652v-1.641H27.927v-2.173h4.247v-1.517H27.927v-1.9h4.627V-30Z" transform="translate(-26 30)"/></clipPath></defs><g transform="translate(0 46)"><g class="c" transform="translate(0 -46)"><g class="d" transform="translate(-591.493 -733.196)"><g class="e" transform="translate(591.493 733.196)"><g class="f"><g class="g"><path class="h" d="M-5-51H39.581V-6.419H-5Z" transform="translate(1.02 47.02)"/></g></g></g></g></g><g class="i" transform="translate(10.555 -32.941)"><g class="j" transform="translate(-558.783 -692.565)"><path class="k" d="M8-35H22.783v16.261H8Z" transform="translate(547.087 723.87)"/></g></g><g class="l" transform="translate(20.058 -32.941)"><g class="j" transform="translate(-568.391 -692.565)"><path class="k" d="M21-35H35.043v16.261H21Z" transform="translate(543.696 723.87)"/></g></g></g></svg>