<svg xmlns="http://www.w3.org/2000/svg" width="12.802" height="21.602" viewBox="0 0 12.802 21.602"><defs><style>.a{fill:#fff;}</style></defs><g transform="translate(-8.64 -5.797)"><g transform="translate(8.64 5.797)"><path class="a" d="M142.608,91.382a6.408,6.408,0,0,0-6.4,6.4,1.316,1.316,0,1,0,2.632,0,3.769,3.769,0,1,1,3.769,3.769,1.316,1.316,0,0,0-1.316,1.316v4.584a1.316,1.316,0,1,0,2.632,0v-3.405a6.4,6.4,0,0,0-1.316-12.665Z" transform="translate(-136.207 -91.382)"/><path class="a" d="M185.191,273.738a1.652,1.652,0,1,0,1.651,1.652A1.652,1.652,0,0,0,185.191,273.738Z" transform="translate(-178.79 -255.44)"/></g></g></svg>