<?xml version="1.0" encoding="utf-8"?>
<!-- Generator: Adobe Illustrator 22.1.0, SVG Export Plug-In . SVG Version: 6.00 Build 0)  -->
<svg version="1.1" id="Layer_1" xmlns="http://www.w3.org/2000/svg" xmlns:xlink="http://www.w3.org/1999/xlink" x="0px" y="0px"
	 viewBox="0 0 75 75" style="enable-background:new 0 0 75 75;" xml:space="preserve">
<style type="text/css">
	.st0{fill:#D4D4D4;}
	.st1{fill:#FFFFFF;}
</style>
<g transform="translate(-677 -4617)">
	<g transform="translate(-157 612)">
		<circle class="st0" cx="871.5" cy="4042.5" r="37.5"/>
	</g>
	<path class="st1" d="M711.7,4682c1.7-1.5,3.6-2.9,5.6-4.1c2.8-1.6,1.6-6.9,4.5-9.4s0.1-0.8,3.7-2.9s-4.8,1.8-4.8,1.8
		s-3.6,5.3-5,6.4c-1.4,1.1-2,2.2-3,2.6c-1,0.4-0.1-3.7,3-7c1.8-1.8,2.4-4.5,1.6-6.9c0,0,10-8.7,9.1-12.3s0.3-0.4-0.9,1.1
		s-5.7,4.2-6.2,5.3c-0.5,0.9-1.2,1.7-2,2.4c0,0-0.4-7.8-1.6-10.3s1.9-2.4,1.6-6.9c-0.4-4.5-0.8-5.3,2-6.2s-3.8,0-4.6,1
		c-0.9,1-2.4,3.7-1.2,5.9s-5-4.6-2.9-8.1s2.1-4.2,1.1-5.1c-0.8-0.7-1.8-1.2-2.8-1.6c0,0,1.4,2.8,0,4.1c-1.4,1.3,0,5.6,0,5.6l2.8,4.4
		l1.8,4.4c-1-0.6-2-1.4-2.9-2.2c-0.6-0.7-3.4-3.2-4.1-3.1s0.2,1,0,1.6s4,5.4,5.2,5.4s3.3,4.9,3,6.4s1.1,9.1,1.1,9.1l-1.1,1.5
		c-1.1-2.2-2.5-4.2-4.1-6c-2-1.9-5.7-4.7-5.6-5.6s-1.8,3.6,0,6.6s4.4,9.5,6.7,10.6s-1.6,6.3-1.1,7.9
		C711.1,4680,711.7,4682,711.7,4682z"/>
</g>
</svg>
