<svg xmlns="http://www.w3.org/2000/svg" width="75" height="75" viewBox="0 0 75 75"><defs><style>.a{fill:#F2F2F2;}.b{fill:#fff;}</style></defs><g transform="translate(-677 -4617)"><g transform="translate(-157 612)"><circle class="a" cx="37.5" cy="37.5" r="37.5" transform="translate(834 4005)"/></g><path class="b" d="M4632.426-2206.357a39.019,39.019,0,0,1,5.616-4.137c2.82-1.62,1.566-6.886,4.541-9.431s.123-.763,3.658-2.9-4.775,1.834-4.775,1.834-3.6,5.337-5,6.446-1.965,2.206-2.959,2.6-.078-3.669,2.959-6.995a6.854,6.854,0,0,0,1.575-6.929s10-8.73,9.147-12.333.349-.386-.948,1.086-5.685,4.186-6.213,5.326a8.839,8.839,0,0,1-1.986,2.353s-.386-7.823-1.575-10.263,1.942-2.4,1.575-6.869-.766-5.26,1.986-6.241-3.767.013-4.625.988-2.379,3.657-1.2,5.93-4.958-4.583-2.9-8.12,2.1-4.154,1.121-5.117a8.705,8.705,0,0,0-2.848-1.572s1.426,2.819,0,4.136,0,5.571,0,5.571l2.848,4.425,1.781,4.4a24.453,24.453,0,0,1-2.9-2.162c-.6-.661-3.442-3.25-4.064-3.14s.219.987,0,1.579,4.01,5.418,5.185,5.378,3.341,4.931,2.978,6.438,1.063,9.111,1.063,9.111l-1.063,1.54a28.288,28.288,0,0,0-4.1-6.013c-1.965-1.852-5.708-4.652-5.552-5.646s-1.8,3.618,0,6.6,4.354,9.537,6.672,10.581-1.624,6.311-1.121,7.949S4632.426-2206.357,4632.426-2206.357Z" transform="translate(-3920.719 6888.357)"/></g></svg>