<svg xmlns="http://www.w3.org/2000/svg" width="75" height="75" viewBox="0 0 75 75"><defs><style>.a{fill:#484848;}.b,.c{fill:#fff;}.b{stroke:#fff;}</style></defs><g transform="translate(-1260 -4617)"><g transform="translate(102 657)"><circle class="a" cx="37.5" cy="37.5" r="37.5" transform="translate(1158 3960)"/></g><g transform="translate(-3659.294 6600)"><path class="b" d="M4962.416-1755.343s2.571-11.574-3.452-21.694-6.336-9.446-7.927-18.8,2.262,6.727,2.938,8.006,7.19,11.838,8.132,15.729,2.111,8.548,2.111,8.548l-1.235,9.242Z" transform="translate(-8.584 -165.448)"/><path class="b" d="M4992.55-1765.983s3.922-13.866,16.156-21.932c10.825-7.139.632-1.135-2.328.622.149-.089-.044.026-.044.026s-11.632,9.657-13.784,19.541S4992.55-1765.983,4992.55-1765.983Z" transform="translate(-36.777 -162.813)"/><path class="c" d="M4981.559-1762.251c-.213,1.318-6.722-15.119-6.017-22.071s4.836-23.395,6.605-29.684,0,6.748,0,6.748-3.3,18.483-3.232,19.459-1.168,7.427-.675,10.769S4981.771-1763.568,4981.559-1762.251Z" transform="translate(-26.694 -155.02)"/><path class="b" d="M4952.4-1755.276s-2.516-11.607,3.509-21.728,6.11-9.037,7.927-18.8-2.362,7.294-3.371,9.918-6.758,9.926-7.7,13.817-2.11,8.548-2.11,8.548l1.235,9.242Z" transform="translate(2.529 -174.236)"/><path class="b" d="M4993.527-1774.211s2.822-8.437,13.523-14.486-1.321-.616-1.321-.616-11.563,8.491-13.446,15.9S4993.527-1774.211,4993.527-1774.211Z" transform="translate(-38.247 -151.839)"/><path class="c" d="M3.543,39.968C3.756,40.985,8.1,29.6,7.392,24.234S2.556,6.177.786,1.323s0,5.208,0,5.208S4.09,20.8,4.02,21.55s1.168,5.732.674,8.312S3.33,38.951,3.543,39.968Z" transform="translate(4936.1 -1952.751) rotate(-22)"/></g></g></svg>