<?xml version="1.0" encoding="utf-8"?>
<!-- Generator: Adobe Illustrator 22.1.0, SVG Export Plug-In . SVG Version: 6.00 Build 0)  -->
<svg version="1.1" id="Layer_1" xmlns="http://www.w3.org/2000/svg" xmlns:xlink="http://www.w3.org/1999/xlink" x="0px" y="0px"
	 viewBox="0 0 75 75" style="enable-background:new 0 0 75 75;" xml:space="preserve">
<style type="text/css">
	.st0{fill:#B8B8B8;}
	.st1{fill:#FFFFFF;stroke:#FFFFFF;}
	.st2{fill:#FFFFFF;}
</style>
<g transform="translate(-1260 -4617)">
	<g transform="translate(102 657)">
		<circle class="st0" cx="1195.5" cy="3997.5" r="37.5"/>
	</g>
	<g transform="translate(-3659.294 6600)">
		<path class="st1" d="M4953.8-1920.8c0,0,2.6-11.6-3.5-21.7s-6.3-9.4-7.9-18.8s2.3,6.7,2.9,8s7.2,11.8,8.1,15.7s2.1,8.5,2.1,8.5
			l-1.2,9.2L4953.8-1920.8z"/>
		<path class="st1" d="M4955.8-1928.8c0,0,3.9-13.9,16.2-21.9c10.8-7.1,0.6-1.1-2.3,0.6c0.1-0.1,0,0,0,0s-11.6,9.7-13.8,19.5
			S4955.8-1928.8,4955.8-1928.8z"/>
		<path class="st2" d="M4954.9-1917.3c-0.2,1.3-6.7-15.1-6-22.1s4.8-23.4,6.6-29.7s0,6.7,0,6.7s-3.3,18.5-3.2,19.5
			s-1.2,7.4-0.7,10.8S4955.1-1918.6,4954.9-1917.3z"/>
		<path class="st1" d="M4954.9-1929.5c0,0-2.5-11.6,3.5-21.7s6.1-9,7.9-18.8s-2.4,7.3-3.4,9.9s-6.8,9.9-7.7,13.8s-2.1,8.5-2.1,8.5
			l1.2,9.2L4954.9-1929.5z"/>
		<path class="st1" d="M4955.3-1926.1c0,0,2.8-8.4,13.5-14.5s-1.3-0.6-1.3-0.6s-11.6,8.5-13.4,15.9S4955.3-1926.1,4955.3-1926.1z"/>
		<path class="st2" d="M4954.4-1917c0.6,0.9,0.3-11.3-2.3-16c-2.7-4.7-11.2-14.9-14.7-18.8c-3.5-3.8,2,4.8,2,4.8s8.4,12,8.6,12.7
			c0.2,0.7,3.2,4.9,3.7,7.5C4952.1-1924.2,4953.8-1917.9,4954.4-1917z"/>
	</g>
</g>
</svg>
