<svg xmlns="http://www.w3.org/2000/svg" width="27" height="17.209" viewBox="0 0 27 17.209"><defs><style>.a{fill:#fff;}</style></defs><g transform="translate(0 -92.835)"><g transform="translate(0 92.835)"><g transform="translate(0 0)"><path class="a" d="M26.828,100.914c-.241-.33-5.988-8.079-13.329-8.079S.412,100.584.171,100.914a.891.891,0,0,0,0,1.051c.241.33,5.988,8.079,13.329,8.079s13.087-7.749,13.329-8.079A.89.89,0,0,0,26.828,100.914ZM13.5,108.264c-5.407,0-10.09-5.143-11.476-6.825,1.384-1.683,6.058-6.824,11.476-6.824s10.089,5.142,11.476,6.825C23.591,103.123,18.918,108.264,13.5,108.264Z" transform="translate(0 -92.835)"/></g></g><g transform="translate(8.159 96.099)"><g transform="translate(0 0)"><path class="a" d="M160.063,154.725a5.341,5.341,0,1,0,5.341,5.341A5.347,5.347,0,0,0,160.063,154.725Zm0,8.9a3.56,3.56,0,1,1,3.56-3.56A3.564,3.564,0,0,1,160.063,163.626Z" transform="translate(-154.722 -154.725)"/></g></g></g></svg>