<svg xmlns="http://www.w3.org/2000/svg" xmlns:xlink="http://www.w3.org/1999/xlink" width="36.62" height="36.62" viewBox="0 0 36.62 36.62"><defs><style>.a,.b{fill:none;}.a{clip-rule:evenodd;}.c{clip-path:url(#a);}.d{clip-path:url(#b);}.e{clip-path:url(#c);}.f{clip-path:url(#d);}.g{clip-path:url(#e);}.h{fill:#d72006;}.i{clip-path:url(#f);}.j{clip-path:url(#g);}.k{fill:#fdfdfd;}.l{clip-path:url(#h);}.m{clip-path:url(#j);}.n{clip-path:url(#k);}.o{clip-path:url(#l);}</style><clipPath id="a"><path class="a" d="M0-46H36.62V-9.38H0Z" transform="translate(0 46)"/></clipPath><clipPath id="b"><path class="b" d="M-743,1669.5H403.365V-792H-743Z" transform="translate(743 792)"/></clipPath><clipPath id="c"><rect class="b" width="37.416" height="37.416"/></clipPath><clipPath id="d"><path class="a" d="M18.31-46A18.312,18.312,0,0,0,0-27.689,18.309,18.309,0,0,0,18.31-9.38,18.308,18.308,0,0,0,36.62-27.689V-46Z" transform="translate(0 46)"/></clipPath><clipPath id="e"><path class="b" d="M0-9.38H36.62V-46H0Z" transform="translate(0 46)"/></clipPath><clipPath id="f"><path class="a" d="M18.506-29l-2.164,6.661h-.027L14.178-29H12l3.119,9.474H17.5L20.684-29Z" transform="translate(-12 29)"/></clipPath><clipPath id="g"><path class="b" d="M-743,1649.061H393.846V-792H-743Z" transform="translate(743 792)"/></clipPath><clipPath id="h"><path class="a" d="M24.189-28.877h8.242V-19.5H24.189Z" transform="translate(-24.189 28.877)"/></clipPath><clipPath id="j"><rect class="b" width="8.684" height="9.474" transform="translate(0 0)"/></clipPath><clipPath id="k"><path class="a" d="M32.431-23.182c0,2.477-1.544,3.682-4.129,3.682s-4.113-1.193-4.113-3.682v-5.695h2.123v5.695c0,1,.272,1.988,1.989,1.988,1.516,0,2-.627,2-1.988v-5.695h2.125Z" transform="translate(-24.189 28.877)"/></clipPath><clipPath id="l"><path class="b" d="M24-19.526h8.684V-29H24Z" transform="translate(-24 29)"/></clipPath></defs><g transform="translate(0 46)"><g class="c" transform="translate(0 -46)"><g class="d" transform="translate(-591.493 -593.881)"><g class="e" transform="translate(591.493 593.881)"><g class="f"><g class="g"><path class="h" d="M-5-51H39.581V-6.419H-5Z" transform="translate(1.02 47.02)"/></g></g></g></g></g><g class="i" transform="translate(9.578 -32.427)"><g class="j" transform="translate(-596.055 -602.371)"><path class="k" d="M7-34H23.579v17.368H7Z" transform="translate(585.107 632.423)"/></g></g><g class="l" transform="translate(19.303 -32.329)"><g class="j" transform="translate(-605.678 -602.467)"><g class="m" transform="translate(605.528 602.371)"><g class="n" transform="translate(0.149 0.097)"><g class="o" transform="translate(-0.149 -0.097)"><path class="k" d="M19.189-33.877H35.326v17.271H19.189Z" transform="translate(-22.987 30.027)"/></g></g></g></g></g></g></svg>