<svg
  xmlns="http://www.w3.org/2000/svg"
  fill="none"
  viewBox="0 0 26 24"
>
  <path
    d="M25.224 18.682 15.951 2.194c-1.646-2.925-4.34-2.925-5.987 0L.69 18.682C-.955 21.606.445 24 3.803 24h18.31c3.358 0 4.757-2.394 3.112-5.318ZM12.957 6.73c.838 0 1.518.68 1.518 1.517 0 .044-.01.085-.013.127h.008l-.605 7.347h-.006a.906.906 0 0 1-.902.835.907.907 0 0 1-.902-.835h-.005l-.605-7.347h.007c-.003-.042-.012-.083-.012-.127 0-.837.679-1.517 1.517-1.517Zm.001 14.023a1.517 1.517 0 1 1 0-3.034 1.517 1.517 0 0 1 0 3.034Z"
    fill="#FFF"
  />
</svg>
